<?xml version="1.0" ?><!DOCTYPE svg  PUBLIC '-//W3C//DTD SVG 1.1//EN'  'http://www.w3.org/Graphics/SVG/1.1/DTD/svg11.dtd'><svg enable-background="new 0 0 512 512" height="512px" id="Calque_1" version="1.1" viewBox="0 0 512 512" width="512px" xml:space="preserve" xmlns="http://www.w3.org/2000/svg" xmlns:xlink="http://www.w3.org/1999/xlink"><g><g><rect fill="#FF5959" height="28.24" width="10.51" x="325.75" y="42.84"/><rect fill="#FF5959" height="28.24" width="8.5" x="307.25" y="42.84"/><rect fill="#FF5959" height="28.24" width="8.5" x="288.75" y="42.84"/><rect fill="#FF5959" height="28.24" width="8.5" x="270.25" y="42.84"/><rect fill="#FF5959" height="28.24" width="8.5" x="251.75" y="42.84"/><rect fill="#FF5959" height="28.24" width="8.5" x="233.25" y="42.84"/><rect fill="#FF5959" height="28.24" width="8.5" x="214.75" y="42.84"/><rect fill="#FF5959" height="28.24" width="8.5" x="196.25" y="42.84"/><rect fill="#FF5959" height="28.24" width="10.51" x="175.74" y="42.84"/><rect fill="#DAE8EB" height="28.24" width="160.52" x="175.74" y="86.08"/><path d="M392.5,446.01c-3.57,13.29-16.37,23.149-31.57,23.149H151.07c-15.199,0-28.01-9.859-31.569-23.149H392.5z" fill="#DAE8EB"/><path d="M392.5,152.48h-273c3.56-13.29,16.37-23.16,31.569-23.16h209.86    C376.13,129.32,388.941,139.19,392.5,152.48z" fill="#DAE8EB"/><path d="M118.51,167.48v263.53h274.98V167.48H118.51z M325.31,290.889L243.44,415.82    c-0.94,1.439-2.53,2.26-4.18,2.26c-0.48,0-0.96-0.07-1.43-0.21c-2.12-0.63-3.57-2.58-3.57-4.79v-97.75h-43.39    c-1.84,0-3.53-1.01-4.4-2.62c-0.87-1.62-0.79-3.58,0.22-5.12l81.87-124.92c0.351-0.53,0.78-0.98,1.28-1.33    c1.23-0.88,2.82-1.17,4.33-0.72c1.01,0.31,1.87,0.9,2.49,1.69c0.68,0.86,1.08,1.95,1.08,3.1v97.74h43.39    c1.84,0,3.53,1.01,4.4,2.619C326.401,287.389,326.321,289.349,325.31,290.889z" fill="#FF5959"/><path d="M244.26,310.33c0-2.76-2.24-5-5-5h-39.14l67.619-103.17v85.99c0,2.76,2.24,5,5,5h39.141l-67.62,103.18    V310.33L244.26,310.33z" fill="#DAE8EB"/></g><path d="M175.13,152.48H119.5c3.56-13.29,16.37-23.16,31.569-23.16H180.2   C178.47,136.74,176.77,144.48,175.13,152.48z" enable-background="new    " opacity="0.3"/><path d="M183.82,114.32h-8.079V86.08h15.59C188.93,94.55,186.39,104.04,183.82,114.32z" enable-background="new    " opacity="0.3"/><path d="M217.63,431.01h-99.12V167.48h53.68C154.81,260.73,149.15,380.5,217.63,431.01z   " enable-background="new    " opacity="0.3"/><path d="M392.5,446.01c-3.57,13.29-16.37,23.149-31.57,23.149H151.07   c-15.199,0-28.01-9.859-31.569-23.149h126.04c30.81,11.51,71.829,12.92,125.819,0H392.5z" enable-background="new    " opacity="0.3"/><path d="M393.49,167.48v263.53L355.5,193.5l-78.84-11.19   c-0.62-0.79-1.48-1.38-2.49-1.69c-1.51-0.45-3.1-0.16-4.33,0.72l-97.65-13.86H393.49z" enable-background="new    " fill="#FFFFFF" opacity="0.7"/><path d="M227.83,289.17L256,309.83l-11.74,86.5v-86c0-2.76-2.24-5-5-5h-39.14   l67.619-103.17L227.83,289.17z" enable-background="new    " opacity="0.3"/><path d="M311.88,293.15l-67.62,103.18v-1.689l0.43-1.449l45.811-87.36l-29.33-16   l6.57-87.67v85.99c0,2.76,2.239,5,5,5L311.88,293.15L311.88,293.15z" enable-background="new    " opacity="0.3"/><path d="M392.5,152.48l-212.3-23.16H360.93   C376.13,129.32,388.941,139.19,392.5,152.48z" enable-background="new    " fill="#FFFFFF" opacity="0.7"/><polygon enable-background="new    " fill="#FFFFFF" opacity="0.7" points="191.33,86.08 336.26,114.32 336.26,86.08  "/><polygon enable-background="new    " opacity="0.3" points="175.74,42.84 186.25,71.08 175.74,71.08  "/><polygon enable-background="new    " opacity="0.3" points="325.75,42.84 336.26,71.08 325.75,71.08  "/><polygon enable-background="new    " opacity="0.3" points="204.75,71.08 196.25,71.08 196.25,42.84 204.75,65.68  "/><polygon enable-background="new    " opacity="0.3" points="223.25,71.08 214.75,71.08 214.75,42.84 223.25,65.68  "/><polygon enable-background="new    " opacity="0.3" points="241.75,71.08 233.25,71.08 233.25,42.84 241.75,65.68  "/><polygon enable-background="new    " opacity="0.3" points="260.25,71.08 251.75,71.08 251.75,42.84 260.25,65.68  "/><polygon enable-background="new    " opacity="0.3" points="278.75,71.08 270.25,71.08 270.25,42.84 278.75,65.68  "/><polygon enable-background="new    " opacity="0.3" points="297.25,71.08 288.75,71.08 288.75,42.84 297.25,65.68  "/><polygon enable-background="new    " opacity="0.3" points="315.75,71.08 307.25,71.08 307.25,42.84 315.75,65.68  "/><polygon enable-background="new    " fill="#FFFFFF" opacity="0.7" points="175.74,42.84 186.25,55.833 186.25,42.84  "/><polygon enable-background="new    " fill="#FFFFFF" opacity="0.7" points="325.75,42.84 336.26,55.833 336.26,42.84  "/><polygon enable-background="new    " fill="#FFFFFF" opacity="0.7" points="315.75,42.84 315.75,55.83 307.25,45.32 307.25,42.84     "/><polygon enable-background="new    " fill="#FFFFFF" opacity="0.7" points="297.25,42.84 297.25,55.83 288.75,45.32 288.75,42.84     "/><polygon enable-background="new    " fill="#FFFFFF" opacity="0.7" points="278.75,42.84 278.75,55.83 270.25,45.32 270.25,42.84     "/><polygon enable-background="new    " fill="#FFFFFF" opacity="0.7" points="260.25,42.84 260.25,55.83 251.75,45.32 251.75,42.84     "/><polygon enable-background="new    " fill="#FFFFFF" opacity="0.7" points="241.75,42.84 241.75,55.83 233.25,45.32 233.25,42.84     "/><polygon enable-background="new    " fill="#FFFFFF" opacity="0.7" points="223.25,42.84 223.25,55.83 214.75,45.32 214.75,42.84     "/><polygon enable-background="new    " fill="#FFFFFF" opacity="0.7" points="204.75,42.84 204.75,55.83 196.25,45.32 196.25,42.84     "/></g></svg>