<?xml version="1.0" ?><svg height="256" viewBox="0 0 256 256" style="fill:#3c3f5d" width="256" xmlns="http://www.w3.org/2000/svg"><title/><g id="body-fat-percentage"><g><path d="M230.73,96.65a1.773,1.773,0,0,0,.1-.61,1.959,1.959,0,0,0-.27-.99,211.56,211.56,0,0,0-10.247-44.83,7.983,7.983,0,0,0-8.747-5.28l-.13.02a7.888,7.888,0,0,0-5.578,3.75,8,8,0,0,0-.7,6.78,194.323,194.323,0,0,1,9.407,40.65c.02.1.03.2.04.3A198.453,198.453,0,0,1,216,120a195.179,195.179,0,0,1-14.955,75.28,8.093,8.093,0,0,0,.3,6.85,7.811,7.811,0,0,0,5.278,4.02l.32.07a7.865,7.865,0,0,0,8.927-4.77A211.816,211.816,0,0,0,232,120,213.325,213.325,0,0,0,230.73,96.65ZM208.937,54.18a4.008,4.008,0,0,1,.35-3.41,3.931,3.931,0,0,1,1.18-1.25,4.01,4.01,0,0,1,1.15-.52,2.975,2.975,0,0,1,.43-.09c.02,0,.04-.01.06-.01h.06a3.988,3.988,0,0,1,4.369,2.63,208.183,208.183,0,0,1,9.877,42.51h-8.077A199.429,199.429,0,0,0,208.937,54.18Z"/><path d="M204.008,72a6,6,0,1,0-6,6A6,6,0,0,0,204.008,72Zm-6,2a2,2,0,1,1,2-2A2.006,2.006,0,0,1,198.01,74Z"/><path d="M181.125,81.79a2,2,0,0,0,2.679-.9l16-32a2,2,0,1,0-3.579-1.78l-16,32A2,2,0,0,0,181.125,81.79Z"/><path d="M182.015,62a6,6,0,1,0-6-6A6,6,0,0,0,182.015,62Zm0-8a2,2,0,1,1-2,2A2.006,2.006,0,0,1,182.015,54Z"/><path d="M171.408,106.42c2.149-1.85,4.059-5.34,2.729-10.89a23.233,23.233,0,0,0-2.869-6.15,58.942,58.942,0,0,1-4.879-10.06,66.61,66.61,0,0,1-3.769-15.54,59.613,59.613,0,0,1-.08-15.39c2.1-17.03,5.428-37.87,5.458-38.07A1.994,1.994,0,0,0,166.03,8H54.043a1.994,1.994,0,0,0-1.969,2.32c.03.2,3.359,21.04,5.458,38.07a59.613,59.613,0,0,1-.08,15.39,66.61,66.61,0,0,1-3.769,15.54A58.942,58.942,0,0,1,48.8,89.38a23.233,23.233,0,0,0-2.869,6.15c-1.33,5.55.58,9.04,2.729,10.89a90.631,90.631,0,0,0-12.606,24.9c-21.853,36.32-14.506,68.86,26.152,115.99a1.991,1.991,0,0,0,1.51.69h92.632a1.991,1.991,0,0,0,1.51-.69c40.658-47.13,48.006-79.67,26.152-115.99A90.631,90.631,0,0,0,171.408,106.42ZM110.027,217.85A123.673,123.673,0,0,0,99.91,186.44a25.47,25.47,0,0,0,20.254-.08A123.519,123.519,0,0,0,110.027,217.85ZM49.825,96.47a19.822,19.822,0,0,1,2.429-5.07,61.646,61.646,0,0,0,5.189-10.7,70.517,70.517,0,0,0,3.969-16.39A63.482,63.482,0,0,0,61.5,47.9C59.8,34.14,57.312,17.93,56.383,12H163.69c-.93,5.93-3.419,22.14-5.118,35.9a63.482,63.482,0,0,0,.09,16.41,70.517,70.517,0,0,0,3.969,16.39,61.646,61.646,0,0,0,5.189,10.7,19.822,19.822,0,0,1,2.429,5.07c1.42,5.91-2.169,7.47-2.6,7.64h-.01a2.454,2.454,0,0,0-.24.1q-4.754,2.37-9.517,4.34a1.951,1.951,0,0,0-.51-1.97,1.994,1.994,0,0,0-2.829.02c-.02.02-2.549,2.58-5.858,5.57-.03.03-.07.06-.1.09-5.139,4.64-9.387,7.8-11.966,8.9-11.057,4.71-24.2,2.88-24.343,2.86A2.645,2.645,0,0,0,112,124h-3.919a2.645,2.645,0,0,0-.28.02c-.14.02-13.256,1.87-24.343-2.86-2.579-1.1-6.828-4.26-11.966-8.9-.03-.03-.07-.06-.1-.09-3.309-2.99-5.838-5.55-5.858-5.57a1.994,1.994,0,0,0-2.829-.02,1.951,1.951,0,0,0-.51,1.97q-4.754-1.965-9.517-4.34a2.454,2.454,0,0,0-.24-.1.389.389,0,0,1-.06-.02C51.864,103.89,48.425,102.31,49.825,96.47ZM38.778,134.58c7.948,2.96,36.369,15.4,54.374,47.54a1.877,1.877,0,0,0,.39.72c7.328,13.29,12.866,29.9,14.486,50.53-.26,3.43-.42,6.98-.46,10.63H64.64C26.312,199.35,18.974,168.46,38.778,134.58ZM155.433,244H111.566c.04-3.64.2-7.15.47-10.56,1.61-20.66,7.138-37.29,14.446-50.59l.03-.03a1.943,1.943,0,0,0,.5-.91C145,149.95,173.278,137.56,181.3,134.58,201.1,168.46,193.761,199.35,155.433,244Z"/><path d="M110.037,97a2.006,2.006,0,0,0,2-2V90a2,2,0,1,0-4,0v5A2.006,2.006,0,0,0,110.037,97Z"/></g></g></svg>