<?xml version="1.0" encoding="UTF-8" standalone="no"?>
<svg
   width="64pt"
   height="64pt"
   viewBox="0 0 22.577778 22.577778"
   version="1.1"
   id="svg831"
   inkscape:version="1.1.2 (1:1.1+202202050950+0a00cf5339)"
   sodipodi:docname="24 - Waist.svg"
   inkscape:export-filename="/media/taufikramadhan/Data/Tr Design Studio/Project Design/TR Creative Design/Icon Design/Project Hiring/Icon Icons/018 - Gym And Fitness/5 - Send/3 - Flat/24 - Waist.png"
   inkscape:export-xdpi="576"
   inkscape:export-ydpi="576"
   xmlns:inkscape="http://www.inkscape.org/namespaces/inkscape"
   xmlns:sodipodi="http://sodipodi.sourceforge.net/DTD/sodipodi-0.dtd"
   xmlns="http://www.w3.org/2000/svg"
   xmlns:svg="http://www.w3.org/2000/svg"
   xmlns:rdf="http://www.w3.org/1999/02/22-rdf-syntax-ns#"
   xmlns:cc="http://creativecommons.org/ns#"
   xmlns:dc="http://purl.org/dc/elements/1.1/">
  <defs
     id="defs825">
    <pattern
       id="EMFhbasepattern"
       patternUnits="userSpaceOnUse"
       width="6"
       height="6"
       x="0"
       y="0" />
    <pattern
       id="EMFhbasepattern-9"
       patternUnits="userSpaceOnUse"
       width="6"
       height="6"
       x="0"
       y="0" />
    <pattern
       id="EMFhbasepattern-0"
       patternUnits="userSpaceOnUse"
       width="6"
       height="6"
       x="0"
       y="0" />
    <pattern
       id="EMFhbasepattern-7"
       patternUnits="userSpaceOnUse"
       width="6"
       height="6"
       x="0"
       y="0" />
    <pattern
       id="EMFhbasepattern-2"
       patternUnits="userSpaceOnUse"
       width="6"
       height="6"
       x="0"
       y="0" />
    <pattern
       id="EMFhbasepattern-98"
       patternUnits="userSpaceOnUse"
       width="6"
       height="6"
       x="0"
       y="0" />
    <pattern
       id="EMFhbasepattern-6"
       patternUnits="userSpaceOnUse"
       width="6"
       height="6"
       x="0"
       y="0" />
    <pattern
       id="EMFhbasepattern-01"
       patternUnits="userSpaceOnUse"
       width="6"
       height="6"
       x="0"
       y="0" />
    <pattern
       id="EMFhbasepattern-07"
       patternUnits="userSpaceOnUse"
       width="6"
       height="6"
       x="0"
       y="0" />
    <pattern
       id="EMFhbasepattern-8"
       patternUnits="userSpaceOnUse"
       width="6"
       height="6"
       x="0"
       y="0" />
    <pattern
       id="EMFhbasepattern-4"
       patternUnits="userSpaceOnUse"
       width="6"
       height="6"
       x="0"
       y="0" />
    <pattern
       id="EMFhbasepattern-40"
       patternUnits="userSpaceOnUse"
       width="6"
       height="6"
       x="0"
       y="0" />
    <pattern
       id="EMFhbasepattern-08"
       patternUnits="userSpaceOnUse"
       width="6"
       height="6"
       x="0"
       y="0" />
    <pattern
       id="EMFhbasepattern-04"
       patternUnits="userSpaceOnUse"
       width="6"
       height="6"
       x="0"
       y="0" />
    <pattern
       id="EMFhbasepattern-014"
       patternUnits="userSpaceOnUse"
       width="6"
       height="6"
       x="0"
       y="0" />
    <pattern
       id="EMFhbasepattern-27"
       patternUnits="userSpaceOnUse"
       width="6"
       height="6"
       x="0"
       y="0" />
    <pattern
       id="EMFhbasepattern-09"
       patternUnits="userSpaceOnUse"
       width="6"
       height="6"
       x="0"
       y="0" />
    <pattern
       id="EMFhbasepattern-5"
       patternUnits="userSpaceOnUse"
       width="6"
       height="6"
       x="0"
       y="0" />
    <pattern
       id="EMFhbasepattern-018"
       patternUnits="userSpaceOnUse"
       width="6"
       height="6"
       x="0"
       y="0" />
  </defs>
  <sodipodi:namedview
     inkscape:lockguides="true"
     id="base"
     pagecolor="#ffffff"
     bordercolor="#666666"
     borderopacity="1.0"
     inkscape:pageopacity="0.0"
     inkscape:pageshadow="2"
     inkscape:zoom="5.5546875"
     inkscape:cx="42.576653"
     inkscape:cy="42.666667"
     inkscape:document-units="pt"
     inkscape:current-layer="layer1"
     showgrid="false"
     units="pt"
     inkscape:window-width="1366"
     inkscape:window-height="705"
     inkscape:window-x="0"
     inkscape:window-y="31"
     inkscape:window-maximized="1"
     inkscape:pagecheckerboard="true"
     inkscape:showpageshadow="false"
     inkscape:object-paths="true"
     inkscape:snap-intersection-paths="true"
     inkscape:snap-smooth-nodes="true"
     inkscape:snap-midpoints="true"
     showguides="false"
     inkscape:snap-bbox="true"
     inkscape:bbox-nodes="true"
     inkscape:snap-nodes="false"
     inkscape:snap-global="true"
     inkscape:document-rotation="0">
    <inkscape:grid
       type="xygrid"
       id="grid1378" />
    <sodipodi:guide
       position="0.97013831,21.607643"
       orientation="78.000048,0"
       id="guide1380"
       inkscape:locked="true" />
    <sodipodi:guide
       position="0.97013831,0.97013129"
       orientation="0,78.000005"
       id="guide1382"
       inkscape:locked="true" />
    <sodipodi:guide
       position="21.607639,0.97013129"
       orientation="-78.000048,0"
       id="guide1384"
       inkscape:locked="true" />
    <sodipodi:guide
       position="21.607639,21.607643"
       orientation="0,-78.000005"
       id="guide1386"
       inkscape:locked="true" />
  </sodipodi:namedview>
  <metadata
     id="metadata828">
    <rdf:RDF>
      <cc:Work
         rdf:about="">
        <dc:format>image/svg+xml</dc:format>
        <dc:type
           rdf:resource="http://purl.org/dc/dcmitype/StillImage" />
      </cc:Work>
    </rdf:RDF>
  </metadata>
  <g
     inkscape:label="Icon"
     inkscape:groupmode="layer"
     id="layer1"
     transform="translate(0,-274.42223)">
    <g
       id="g602062"
       style="display:inline;stroke-width:0.794793"
       transform="matrix(1.2581892,0,0,1.2581892,-114.49808,-154.07525)">
      <path
         style="color:#000000;fill:#ec7523;fill-opacity:1;stroke-width:0.794793;stroke-linecap:round;stroke-linejoin:round;stroke-miterlimit:10;-inkscape-stroke:none"
         d="m 103.71875,347.1582 a 0.26460945,0.26460945 0 0 0 -0.26562,0.26367 v 1.32422 a 0.26460945,0.26460945 0 0 0 0.26562,0.26368 h 1.15039 c 0.50845,0 0.92774,-0.41733 0.92774,-0.92579 0,-0.50844 -0.41929,-0.92578 -0.92774,-0.92578 z"
         id="path217951" />
      <path
         style="color:#000000;fill:#66342d;fill-opacity:1;stroke-width:0.794793;stroke-linecap:round;stroke-linejoin:round;stroke-miterlimit:10;-inkscape-stroke:none"
         d="m 103.96013,347.6875 h 0.90901 c 0.22445,0 0.39844,0.17205 0.39844,0.39648 0,0.22445 -0.17399,0.39649 -0.39844,0.39649 h -0.92068 z"
         id="path218929"
         sodipodi:nodetypes="cssscc" />
      <path
         style="color:#000000;fill:#ffccbc;stroke-width:0.794793;stroke-linecap:round;stroke-linejoin:round;stroke-miterlimit:10;-inkscape-stroke:none"
         d="m 99.974609,343.18945 c -0.830723,0 -1.95728,0.27187 -2.898437,0.53907 -0.941157,0.26719 -1.6875,0.53515 -1.6875,0.53515 a 0.26460996,0.26460996 0 0 0 -0.148438,0.36719 c 0,0 0.765625,1.53541 0.765625,3.58594 0,0.1631 -0.0048,0.31886 -0.01367,0.46875 -1.48e-4,0.002 1.51e-4,0.005 0,0.008 l -0.226562,1.31641 c -0.230902,0.82768 -0.541016,1.83203 -0.541016,1.83203 a 0.26460996,0.26460996 0 0 0 0.164063,0.32812 c 0,0 0.746345,0.26601 1.6875,0.5332 0.941155,0.2672 2.067715,0.54102 2.898437,0.54102 0.830719,0 1.957279,-0.27382 2.898439,-0.54102 0.94115,-0.26719 1.68945,-0.5332 1.68945,-0.5332 a 0.26460996,0.26460996 0 0 0 0.16016,-0.33398 c 0,0 -0.32205,-0.95625 -0.55274,-1.81641 l -0.20898,-1.29492 v -0.002 c -0.0103,-0.16093 -0.0176,-0.32962 -0.0176,-0.50586 0,-2.05053 0.76562,-3.58594 0.76562,-3.58594 a 0.26460996,0.26460996 0 0 0 -0.14648,-0.36719 c 0,0 -0.74634,-0.26796 -1.6875,-0.53515 -0.94116,-0.2672 -2.06967,-0.53907 -2.900389,-0.53907 z"
         id="path217957" />
      <path
         id="path478059"
         style="fill:#ffa286;fill-opacity:1;stroke-width:0.794793;stroke-linecap:round;stroke-linejoin:round;stroke-miterlimit:10"
         d="m 99.974778,343.18942 c -0.830723,0 -1.957374,0.27179 -2.898531,0.53899 -0.941158,0.26719 -1.687751,0.53537 -1.687751,0.53537 a 0.26460996,0.26460996 0 0 0 -0.148312,0.3669 c 0,0 0.25423,0.5109 0.469738,1.33583 0.0029,6e-5 0.0059,5.3e-4 0.0088,5.3e-4 0.259493,0.037 2.197603,0.27441 4.257623,-0.50229 1.015395,0.38008 2.031665,0.52833 2.820505,0.55655 0.81289,0.0291 1.26222,-0.0291 1.43764,-0.0543 0.002,-2e-5 0.003,3e-5 0.005,0 0.21551,-0.82496 0.46974,-1.33583 0.46974,-1.33583 a 0.26460996,0.26460996 0 0 0 -0.14624,-0.36742 c 0,0 -0.74659,-0.26818 -1.68775,-0.53537 -0.94116,-0.2672 -2.06937,-0.53899 -2.90009,-0.53899 z" />
      <path
         style="color:#000000;fill:#ee8eb4;stroke-width:0.794793;stroke-linecap:round;stroke-linejoin:round;stroke-miterlimit:10;-inkscape-stroke:none"
         d="m 95.742187,341.33789 c -0.350752,0 -0.748789,0.0752 -1.058593,0.36719 -0.309804,0.29196 -0.499251,0.7676 -0.529297,1.47265 -0.06137,1.44007 0.880207,2.12447 1.583984,2.12696 0.05553,0.008 2.24472,0.30759 4.236328,-0.5293 1.991631,0.83693 4.182751,0.53767 4.238281,0.5293 0.70377,-0.002 1.6434,-0.68689 1.58203,-2.12696 -0.0301,-0.70505 -0.2195,-1.18069 -0.52929,-1.47265 -0.3098,-0.29197 -0.7059,-0.36719 -1.05665,-0.36719 h -4.234371 z"
         id="path217973" />
      <path
         id="path157544"
         style="color:#000000;fill:#df2a72;stroke-width:0.794793;stroke-linecap:round;stroke-linejoin:round;stroke-miterlimit:10;-inkscape-stroke:none"
         d="m 99.974778,344.77537 c 0,0 0.423952,0.16407 0.636652,0.22893 0.0182,-0.01 0.0363,-0.0197 0.0548,-0.03 0.30347,-0.1686 0.62338,-0.34587 0.81804,-0.54054 0.10261,-0.1032 0.10261,-0.2699 0,-0.3731 -0.0491,-0.0494 -0.11582,-0.0775 -0.18552,-0.078 -0.0704,10e-6 -0.13794,0.0281 -0.18759,0.078 -0.0699,0.0699 -0.7028,0.45113 -0.7028,0.45113 z"
         sodipodi:nodetypes="ccccscccc" />
      <path
         style="color:#000000;fill:#ffa185;stroke-width:0.794793;stroke-linecap:round;stroke-linejoin:round;stroke-miterlimit:10;-inkscape-stroke:none"
         d="m 96.980469,346.11328 a 0.2645835,0.2645835 0 0 0 -0.166016,0.33399 c 0,0 0.25,0.79925 0.25,1.24023 a 0.2645835,0.2645835 0 0 0 0.265625,0.26367 0.2645835,0.2645835 0 0 0 0.263672,-0.26367 c 0,-0.61736 -0.277344,-1.40625 -0.277344,-1.40625 a 0.2645835,0.2645835 0 0 0 -0.335937,-0.16797 z"
         id="path160556" />
      <path
         style="color:#000000;fill:#ffa185;stroke-width:0.794793;stroke-linecap:round;stroke-linejoin:round;stroke-miterlimit:10;-inkscape-stroke:none"
         d="m 102.94922,346.10742 a 0.2645835,0.2645835 0 0 0 -0.32031,0.19336 c 0,0 -0.27149,1.08714 -0.27149,2.44531 a 0.2645835,0.2645835 0 0 0 0.26367,0.26368 0.2645835,0.2645835 0 0 0 0.26368,-0.26368 c 0,-1.28762 0.25781,-2.31836 0.25781,-2.31836 a 0.2645835,0.2645835 0 0 0 -0.19336,-0.32031 z"
         id="path160979" />
      <path
         style="color:#000000;fill:#4895ef;stroke-width:0.794793;stroke-linecap:round;stroke-linejoin:round;stroke-miterlimit:10;-inkscape-stroke:none"
         d="m 92.832031,345.9668 a 0.2645835,0.2645835 0 0 0 -0.265625,0.26562 0.2645835,0.2645835 0 0 0 0.265625,0.26367 h 1.851563 a 0.2645835,0.2645835 0 0 0 0.263672,-0.26367 0.2645835,0.2645835 0 0 0 -0.263672,-0.26562 z"
         id="path162117" />
      <path
         style="color:#000000;fill:#4377d1;fill-opacity:1;stroke-width:0.794793;stroke-linecap:round;stroke-linejoin:round;stroke-miterlimit:10;-inkscape-stroke:none"
         d="m 94.683594,345.70312 a 0.2645835,0.2645835 0 0 0 -0.1875,0.0762 0.2645835,0.2645835 0 0 0 -0.07617,0.1875 v 0.52929 a 0.26460996,0.26460996 0 0 0 0.451172,0.1875 l 0.263672,-0.26562 a 0.26460996,0.26460996 0 0 0 0,-0.37305 l -0.263672,-0.26562 a 0.2645835,0.2645835 0 0 0 -0.1875,-0.0762 z"
         id="path162119" />
      <path
         style="color:#000000;fill:#4895ef;stroke-width:0.794793;stroke-linecap:round;stroke-linejoin:round;stroke-miterlimit:10;-inkscape-stroke:none"
         d="m 105.26758,345.9668 a 0.2645835,0.2645835 0 0 0 -0.26563,0.26562 0.2645835,0.2645835 0 0 0 0.26563,0.26367 h 1.85156 a 0.2645835,0.2645835 0 0 0 0.26367,-0.26367 0.2645835,0.2645835 0 0 0 -0.26367,-0.26562 z"
         id="path162201" />
      <path
         style="color:#000000;fill:#4377d1;fill-opacity:1;stroke-width:0.794793;stroke-linecap:round;stroke-linejoin:round;stroke-miterlimit:10;-inkscape-stroke:none"
         d="m 105.26758,345.70312 a 0.2645835,0.2645835 0 0 0 -0.1875,0.0762 l -0.26563,0.26562 a 0.26460996,0.26460996 0 0 0 0,0.37305 l 0.26563,0.26562 a 0.26460996,0.26460996 0 0 0 0.45117,-0.1875 v -0.52929 a 0.2645835,0.2645835 0 0 0 -0.01,-0.0508 0.2645835,0.2645835 0 0 0 -0.006,-0.0274 0.2645835,0.2645835 0 0 0 -0.0625,-0.10937 0.2645835,0.2645835 0 0 0 -0.18555,-0.0762 z"
         id="path162203" />
      <path
         style="color:#000000;fill:#fca311;stroke-width:0.794793;stroke-linecap:round;stroke-linejoin:round;stroke-miterlimit:10;-inkscape-stroke:none"
         d="m 105.53125,347.82227 a 0.26460945,0.26460945 0 0 0 -0.26367,0.26171 c 0,0.22445 -0.17399,0.39649 -0.39844,0.39649 -3.48368,-1e-5 -6.965545,0 -10.449218,0 a 0.26460945,0.26460945 0 0 0 -0.265625,0.26562 v 1.32227 a 0.26460945,0.26460945 0 0 0 0.265625,0.26367 c 3.483673,0 6.965538,1e-5 10.449218,0 0.50845,0 0.92774,-0.41733 0.92774,-0.92578 v -1.32227 a 0.26460945,0.26460945 0 0 0 -0.26563,-0.26171 z"
         id="path218007" />
      <path
         id="path503962"
         style="color:#000000;fill:#ec7523;fill-opacity:1;stroke-width:0.794793;stroke-linecap:round;stroke-linejoin:round;stroke-miterlimit:10;-inkscape-stroke:none"
         d="m 105.53103,347.82221 c -0.14472,5.7e-4 -0.26213,0.1173 -0.26355,0.26201 0,0.22444 -0.17398,0.39635 -0.39843,0.39635 -3.48368,-10e-6 -6.9653,0 -10.448971,0 -0.146929,-5.6e-4 -0.266178,0.11869 -0.265616,0.26562 v 0.26355 H 104.4563 a 0.93571607,0.93571607 0 0 1 0.93572,0.93572 v 0.22338 c 0.24371,-0.16743 0.40463,-0.44747 0.40463,-0.76274 v -1.32188 c -0.001,-0.14552 -0.1201,-0.26257 -0.26562,-0.26201 z" />
      <path
         id="path163713"
         style="color:#000000;fill:#143441;stroke-width:0.794793;stroke-linecap:round;stroke-linejoin:round;stroke-miterlimit:10;-inkscape-stroke:none"
         d="m 95.476346,348.48057 v 0.52917 a 0.2645835,0.2645835 0 0 0 0.265617,0.26562 0.2645835,0.2645835 0 0 0 0.264065,-0.26562 v -0.52917 c -0.176572,0 -0.353105,0 -0.529682,0 z m 1.324467,0 v 1.85157 c 0.176389,0 0.352779,0 0.529166,0 v -1.85157 c -0.176387,0 -0.352777,0 -0.529166,0 z m 1.3224,0 v 0.52917 a 0.2645835,0.2645835 0 0 0 0.265616,0.26562 0.2645835,0.2645835 0 0 0 0.263551,-0.26562 v -0.52917 c -0.176382,0 -0.352787,0 -0.529167,0 z m 1.321883,0 v 1.85157 c 0.176548,0 0.353134,0 0.529682,0 v -1.85157 c -0.176548,0 -0.353134,0 -0.529682,0 z m 1.324464,0 v 0.52917 a 0.2645835,0.2645835 0 0 0 0.26355,0.26562 0.2645835,0.2645835 0 0 0 0.26562,-0.26562 v -0.52917 c -0.17638,0 -0.35279,0 -0.52917,0 z m 1.3224,0 v 1.85157 c 0.17639,0 0.35278,0 0.52917,0 v -1.85157 c -0.17639,0 -0.35278,0 -0.52917,0 z m 1.32189,0 v 0.52917 a 0.2645835,0.2645835 0 0 0 0.26561,0.26562 0.2645835,0.2645835 0 0 0 0.26407,-0.26562 v -0.52917 c -0.17658,0 -0.35311,0 -0.52968,0 z" />
      <path
         style="color:#000000;fill:#4895ef;stroke-width:0.794793;stroke-linecap:round;stroke-linejoin:round;stroke-miterlimit:10;-inkscape-stroke:none"
         d="m 93.625,348.2168 c -0.288567,0 -0.529297,0.24073 -0.529297,0.52929 v 1.32227 c 0,0.28857 0.24073,0.5293 0.529297,0.5293 h 0.529297 c 0.288567,0 0.529297,-0.24073 0.529297,-0.5293 v -1.32227 c 0,-0.28856 -0.24073,-0.52929 -0.529297,-0.52929 z"
         id="path218041" />
      <path
         id="path492453"
         style="color:#000000;fill:#4377d1;fill-opacity:1;stroke-width:0.794793;stroke-linecap:round;stroke-linejoin:round;stroke-miterlimit:10;-inkscape-stroke:none"
         d="m 93.624778,348.21702 c -0.288568,0 -0.529167,0.24061 -0.529167,0.52917 h 0.529686 c 0.288565,0 0.529166,0.24061 0.529166,0.52917 v 1.3224 c 0.288565,0 0.529164,-0.2406 0.529167,-0.52917 v -1.3224 c 0,-0.28856 -0.240602,-0.52917 -0.529167,-0.52917 z" />
      <path
         id="path498873"
         style="color:#000000;fill:#e75f96;fill-opacity:1;stroke-width:0.794793;stroke-linecap:round;stroke-linejoin:round;stroke-miterlimit:10;-inkscape-stroke:none"
         d="m 95.741963,341.33786 c -0.350753,0 -0.74853,0.0754 -1.058333,0.36742 -0.05172,0.0487 -0.09987,0.10256 -0.144695,0.16174 h 4.906676 4.234369 c 0.35075,0 0.74647,0.0754 1.05627,0.36742 0.30978,0.29196 0.49958,0.76721 0.52968,1.47227 0.0246,0.57789 -0.11237,1.03421 -0.33021,1.37355 0.48835,-0.30716 0.90067,-0.93368 0.85938,-1.90272 -0.0301,-0.70505 -0.2199,-1.1803 -0.52969,-1.47226 -0.3098,-0.29197 -0.70551,-0.36742 -1.05626,-0.36742 h -4.234372 z" />
      <path
         style="color:#000000;display:inline;fill:#ee8eb4;stroke-width:0.794793;stroke-linecap:round;stroke-linejoin:round;stroke-miterlimit:10;-inkscape-stroke:none"
         d="m 95.400916,351.26172 c 0,0 -1.317253,2.07424 -1.49076,4.3457 -0.01615,0.21148 0.04206,0.41802 0.138672,0.60352 0.09661,0.1855 0.233835,0.35362 0.427734,0.45703 0.767244,0.40919 2.481958,1.07226 5.498047,1.07226 3.016641,0 4.732961,-0.66308 5.500001,-1.07226 0.19395,-0.10346 0.33124,-0.27329 0.42773,-0.45899 0.0965,-0.18569 0.15292,-0.39188 0.13672,-0.60351 -0.17383,-2.27097 -1.50271,-4.34375 -1.50271,-4.34375 0,0 -1.34048,0.9241 -4.560763,0.9241 -3.220283,0 -4.574671,-0.9241 -4.574671,-0.9241 z"
         id="path217963"
         sodipodi:nodetypes="csssssssczc" />
      <path
         id="path155250"
         style="color:#000000;fill:#df2a72;stroke-width:0.794793;stroke-linecap:round;stroke-linejoin:round;stroke-miterlimit:10;-inkscape-stroke:none"
         d="m 99.974778,355.35922 a 0.2645835,0.2645835 0 0 0 -0.264065,0.26562 v 2.11357 c 0.08692,0.001 0.174874,0.002 0.264065,0.002 0.08973,0 0.178182,-7.9e-4 0.265622,-0.002 v -2.11357 a 0.2645835,0.2645835 0 0 0 -0.265622,-0.26562 z" />
      <path
         id="path596196"
         style="color:#000000;display:inline;fill:#e75f96;fill-opacity:1;stroke-width:0.794793;stroke-linecap:round;stroke-linejoin:round;stroke-miterlimit:10;-inkscape-stroke:none"
         d="m 95.400692,351.26179 c 0,0 -0.296538,0.41372 -0.568257,1.07281 0.131016,0.0764 1.539904,0.9095 4.614211,0.9095 1.058624,0 1.932324,-0.0999 2.628284,-0.2339 1.19936,-0.23102 2.58488,0.18953 2.96063,1.35638 0.2179,0.67666 0.40869,1.46652 0.47273,2.28248 0.17628,-0.10455 0.30349,-0.26553 0.39429,-0.44028 0.0965,-0.18569 0.15263,-0.39143 0.13643,-0.60306 -0.17383,-2.27097 -1.50264,-4.34393 -1.50264,-4.34393 0,0 -1.34027,0.92398 -4.560557,0.92398 -3.220281,0 -4.575121,-0.92398 -4.575121,-0.92398 z"
         sodipodi:nodetypes="ccssscsscsc" />
    </g>
  </g>
</svg>
