<svg height="256" width="256" xmlns="http://www.w3.org/2000/svg" fill="#3c3f5d"><path d="M246 96h-10.77a31.731 31.731 0 005.73-5.96c12.35-16.99 4.9-31.46 3.33-34.12l-1.17-7.85a1.992 1.992 0 00-2.08-1.71l-10.72.54a2.012 2.012 0 00-1.9 1.95l-.06 2.35a44.423 44.423 0 00-4.67-5.68 17.733 17.733 0 01-4.31-7.55l-1.8-6.41-.09-.24A11.98 11.98 0 00206.44 24h-4.5a11.937 11.937 0 00-10.75 6.67 2.714 2.714 0 00-.11.25l-2.19 6.51a17.819 17.819 0 01-5.4 7.99 49.044 49.044 0 00-17.26 33.57l-5.42-1.84a2 2 0 00-2.33.81l-3.51 5.48a2.014 2.014 0 00.14 2.36l4.59 5.5a35.7 35.7 0 003.91 4.7H162a2.006 2.006 0 00-2 2 17.942 17.942 0 006.71 14h-30.05a9.991 9.991 0 00-17.31 0H89.29A17.942 17.942 0 0096 98a2.006 2.006 0 00-2-2h-.01c7.62-11.41 8.09-30.32.68-43.01l8.1-8.21A8 8 0 10107 30a8.068 8.068 0 00-1.39.12 8.757 8.757 0 00-1.73-3.54A7.369 7.369 0 0098 24a8.011 8.011 0 00-8 8 8.14 8.14 0 002.06 5.5l-6.73 5.8a24.035 24.035 0 00-10.14-3.29c-29.78-2.89-43.66 30.81-45.8 36.53-1.38.78-4.19 2.59-10.5 6.8-6.03 4.02-7.36 8.77-7.1 12.66H10a2.006 2.006 0 00-2 2 18.021 18.021 0 0018 18h20v4a2.006 2.006 0 002 2h71.34a9.958 9.958 0 006.66 4.8v21.27h-5.7a2.01 2.01 0 00-1.98 1.71c-2.38 15.84-9.99 37.77-32.7 52.27A12.035 12.035 0 0080 212.21V218H69a7 7 0 000 14h118a7 7 0 000-14h-11v-5.79a12.035 12.035 0 00-5.62-10.16c-22.71-14.5-30.32-36.43-32.7-52.27a2.01 2.01 0 00-1.98-1.71H130V126.8a9.886 9.886 0 006.65-4.8H208a2.006 2.006 0 002-2v-4h20a18.021 18.021 0 0018-18 2.006 2.006 0 00-2-2zm-59.93-47.52a21.887 21.887 0 006.62-9.77l2.14-6.38a7.971 7.971 0 017.11-4.33h4.5a7.989 7.989 0 017.32 4.77l1.77 6.28a21.75 21.75 0 005.29 9.26 43.053 43.053 0 017.34 10.29l-.09 3.25a45.654 45.654 0 01-8.09 10.42c-.56.52-1.13 1.03-1.72 1.52C216.58 66.41 211.16 58 204 58c-8.21 0-14.83 11.17-14.83 20.42a17.813 17.813 0 00.69 4.97q-2.58 0-5.25-.21a66.644 66.644 0 01-14.48-2.86 45.173 45.173 0 0115.94-31.84zm19.02 32.6c-.43.15-.87.28-1.31.4-.28.09-.57.17-.86.24-.84.24-1.7.44-2.57.62-.42.09-.84.17-1.27.25h-.04c-.51.1-1.03.18-1.55.25s-1.02.15-1.54.2a.248.248 0 01-.08.01c-.62.07-1.23.13-1.86.17a13.731 13.731 0 01-.84-4.8c0-7.17 5.25-16.42 10.83-16.42 5.06 0 9.87 7.69 10.69 14.46a.076.076 0 01-.04.02 12.338 12.338 0 01-1.08.69 8.858 8.858 0 01-.84.5c-.2.12-.39.23-.59.34-.34.19-.68.37-1.02.55s-.66.34-1 .5l-.12.06c-.37.18-.73.35-1.11.51-.03.01-.05.02-.08.03-.39.18-.78.34-1.18.5-.83.33-1.68.64-2.54.92zm-42.15 7.87l-.11-.14-3.71-4.44 1.88-2.93 6.42 2.19.34.11a66.624 66.624 0 0016.52 3.42 63.219 63.219 0 008.45.15h.1c9.62-.49 18.06-3.25 25.11-8.23a40.93 40.93 0 004.78-3.91 49.488 49.488 0 009.08-11.79 2 2 0 00.26-.93l.11-4.31.2-7.34 7.06-.35.96 6.46a2.113 2.113 0 00.33.84c.37.54 8.9 13.57-3 29.94a32.2 32.2 0 01-9.43 8.31h-58.64a31.37 31.37 0 01-6.71-7.05zM98 28a3.505 3.505 0 012.66.97 5.909 5.909 0 011.28 3.69 2 2 0 003.03 1.9A3.851 3.851 0 01107 34a4 4 0 010 8 3.915 3.915 0 01-2.92-1.28 10.694 10.694 0 01-1.01-3.51 2.005 2.005 0 00-.84-1.72 1.954 1.954 0 00-2.15-.07 8.149 8.149 0 01-4.08.06l-.09-.03A3.707 3.707 0 0194 32a4 4 0 014-4zm-2.19 11.54a12.676 12.676 0 003.64.07 13.458 13.458 0 00.69 2.15l-9.29 9.43-.18.18-3.1 3.14a8.669 8.669 0 00-2.29-3.38 8.352 8.352 0 00-1.59-1.12l3.13-2.71zm-16.37 13.3a5.541 5.541 0 013.17 1.27 6.458 6.458 0 011.81 4.4 28.74 28.74 0 01-1.35 9.95c-3.74 13.38-12.1 17.37-18.08 16.73-5.7-.61-9.63-5.05-9.99-11.31-.89-15.1 16.7-19.74 17.49-19.94a2.411 2.411 0 00.25-.08 15.788 15.788 0 016.7-1.02zM21.11 86.66c8.02-5.34 10.02-6.52 10.5-6.78a1.479 1.479 0 00.29-.12 1.768 1.768 0 00.54-.4l.02.01a1.728 1.728 0 00.46-.82.192.192 0 00.04-.12c1.09-3.1 13.81-37.16 41.85-34.44a20.137 20.137 0 017.3 2.09l-3.15 2.73a20.338 20.338 0 00-7.58 1.29c-1.86.51-21.42 6.36-20.38 24.02.48 8.18 5.93 14.23 13.56 15.05a15.3 15.3 0 001.67.09c7.34 0 16.59-5.06 20.7-19.72a34.806 34.806 0 001.53-10.25l3.29-3.33c6.52 12.2 5.35 30.69-2.78 40.04H15.8c-.33-3.63 1.45-6.77 5.31-9.34zM50 118v-2h68.05l-.03.43c-.01.19-.02.38-.02.57 0 .33.02.67.05 1zm78 5a5.971 5.971 0 01-5.56-3.74A6.1 6.1 0 01122 117a6.2 6.2 0 01.11-1.14 4.756 4.756 0 01.14-.57c.05-.18.12-.37.19-.55 0-.01.01-.02.01-.03a6 6 0 0111.11.03A6.1 6.1 0 01134 117a6.2 6.2 0 01-.11 1.14 4.758 4.758 0 01-.14.57c-.05.18-.12.37-.19.55 0 .01-.01.02-.01.03A5.975 5.975 0 01128 123zm78-5h-68.05l.03-.43c.01-.19.02-.38.02-.57 0-.33-.02-.67-.05-1H206z"/></svg>