<svg height="512" width="512" xmlns="http://www.w3.org/2000/svg"><path fill="#FF5959" d="M325.75 42.84h10.51v28.24h-10.51zm-18.5 0h8.5v28.24h-8.5zm-18.5 0h8.5v28.24h-8.5zm-18.5 0h8.5v28.24h-8.5zm-18.5 0h8.5v28.24h-8.5zm-18.5 0h8.5v28.24h-8.5zm-18.5 0h8.5v28.24h-8.5zm-18.5 0h8.5v28.24h-8.5zm-20.51 0h10.51v28.24h-10.51z"/><path fill="#DAE8EB" d="M175.74 86.08h160.52v28.24H175.74zM392.5 446.01c-3.57 13.29-16.37 23.149-31.57 23.149H151.07c-15.199 0-28.01-9.859-31.569-23.149H392.5zm0-293.53h-273c3.56-13.29 16.37-23.16 31.569-23.16h209.86c15.201 0 28.012 9.87 31.571 23.16z"/><path d="M118.51 167.48v263.53h274.98V167.48H118.51zm206.8 123.409L243.44 415.82a4.994 4.994 0 01-5.61 2.05 4.995 4.995 0 01-3.57-4.79v-97.75h-43.39c-1.84 0-3.53-1.01-4.4-2.62-.87-1.62-.79-3.58.22-5.12l81.87-124.92c.351-.53.78-.98 1.28-1.33a4.984 4.984 0 014.33-.72 5.008 5.008 0 013.57 4.79v97.74h43.39c1.84 0 3.53 1.01 4.4 2.619a5 5 0 01-.22 5.12z" fill="#FF5959"/><path d="M244.26 310.33c0-2.76-2.24-5-5-5h-39.14l67.619-103.17v85.99c0 2.76 2.24 5 5 5h39.141l-67.62 103.18v-86z" fill="#DAE8EB"/><path d="M175.13 152.48H119.5c3.56-13.29 16.37-23.16 31.569-23.16H180.2c-1.73 7.42-3.43 15.16-5.07 23.16zm8.69-38.16h-8.079V86.08h15.59a940.85 940.85 0 00-7.511 28.24zm33.81 316.69h-99.12V167.48h53.68c-17.38 93.25-23.04 213.02 45.44 263.53zm174.87 15c-3.57 13.29-16.37 23.149-31.57 23.149H151.07c-15.199 0-28.01-9.859-31.569-23.149h126.04c30.81 11.51 71.829 12.92 125.819 0h21.14z" opacity=".3"/><path d="M393.49 167.48v263.53L355.5 193.5l-78.84-11.19a5.014 5.014 0 00-2.49-1.69c-1.51-.45-3.1-.16-4.33.72l-97.65-13.86h221.3z" fill="#FFF" opacity=".7"/><path d="M227.83 289.17L256 309.83l-11.74 86.5v-86c0-2.76-2.24-5-5-5h-39.14l67.619-103.17-39.909 87.01z" opacity=".3"/><path d="M311.88 293.15l-67.62 103.18v-1.689l.43-1.449 45.811-87.36-29.33-16 6.57-87.67v85.99c0 2.76 2.239 5 5 5l39.139-.002z" opacity=".3"/><path d="M392.5 152.48l-212.3-23.16h180.73c15.2 0 28.011 9.87 31.57 23.16zm-201.17-66.4l144.93 28.24V86.08z" fill="#FFF" opacity=".7"/><path opacity=".3" d="M175.74 42.84l10.51 28.24h-10.51zm150.01 0l10.51 28.24h-10.51zm-121 28.24h-8.5V42.84l8.5 22.84zm18.5 0h-8.5V42.84l8.5 22.84zm18.5 0h-8.5V42.84l8.5 22.84zm18.5 0h-8.5V42.84l8.5 22.84zm18.5 0h-8.5V42.84l8.5 22.84zm18.5 0h-8.5V42.84l8.5 22.84zm18.5 0h-8.5V42.84l8.5 22.84z"/><path fill="#FFF" opacity=".7" d="M175.74 42.84l10.51 12.993V42.84zm150.01 0l10.51 12.993V42.84zm-10 0v12.99l-8.5-10.51v-2.48zm-18.5 0v12.99l-8.5-10.51v-2.48zm-18.5 0v12.99l-8.5-10.51v-2.48zm-18.5 0v12.99l-8.5-10.51v-2.48zm-18.5 0v12.99l-8.5-10.51v-2.48zm-18.5 0v12.99l-8.5-10.51v-2.48zm-18.5 0v12.99l-8.5-10.51v-2.48z"/></svg>