<svg height="256" width="256" xmlns="http://www.w3.org/2000/svg" fill="#3c3f5d"><path d="M228.82 90.083l-.38-17.037a2 2 0 00-1.78-1.95l-27.3-3.05a2 2 0 00-2.2 1.69l-1.8 11.938-4 .79a47.084 47.084 0 00-7.286-11.164c-15.474-17.582-36.917-16.462-52.165-12.423a44.164 44.164 0 01-5.38 1.08c1.14-10.818 4.57-25.736 14.679-27.716a5.953 5.953 0 004.78-5.859v-4.389a5.977 5.977 0 00-9-5.169c-6.4 3.7-13.989 12.648-18.648 27.086-4.23-7.429-16.069-21.057-44.886-17.567a2 2 0 00-1.42.87 2.037 2.037 0 00-.27 1.65c.08.26 6.789 23.226 35.347 23.226a60.366 60.366 0 009.219-.74 87.75 87.75 0 00-1.5 8.789 45.48 45.48 0 01-6.759-1.26c-15.249-4.04-36.687-5.16-52.166 12.422C42 87.063 38.937 113.579 47.736 139.755c-.07-.02-.12-.04-.16-.05l-19.528-8.149a2 2 0 00-2.39.68l-9.279 12.908a2 2 0 000 2.34L26.648 161.7c5.769 11.528 12.619 18.257 19.628 23.117l-18.888-3.549a2.014 2.014 0 00-2.19 1.14l-6.619 14.558a2 2 0 00.49 2.31l13.159 11.848C49.826 230.032 75.364 240 105.441 240a148.193 148.193 0 0019.418-1.32c43.626-5.769 84.653-29.825 99.761-58.481a88.4 88.4 0 009.8-29.705 37.491 37.491 0 003.6-10.078c7.019-24.977-6.68-46.634-9.2-50.333zM73.134 75.195a2 2 0 011.73 3.6c-.8.39-17.588 8.789-17.588 30.865a49.15 49.15 0 00.69 8 2 2 0 01-1.64 2.3 1.84 1.84 0 01-.33.03 2 2 0 01-1.97-1.67C48.836 87.2 72.884 75.3 73.134 75.195zm30.857 152.777a2 2 0 01-.03-4 141.283 141.283 0 0027.268-3 2 2 0 11.83 3.909 144.537 144.537 0 01-28.038 3.09zm47.736-8.829a2 2 0 01-2.58-1.16 2 2 0 011.17-2.58c37.547-14.148 55.815-41.254 56-41.524a2 2 0 013.34 2.2c-.765 1.161-19.113 28.436-57.93 43.064zm-121.57-59.371a1.607 1.607 0 00-.17-.28l-9.519-13.178 7.509-10.448 18.138 7.569a.986.986 0 00.16.05c.05.02.99.32 2.7.79a207.7 207.7 0 0052.875 7.259h.72c38.337-.16 67.9-13.2 85.873-37.774l.5 4.219c-14.589 37.4-42.506 60.111-82.983 67.49a165.736 165.736 0 01-49.036 1.12c-9.738-5.3-19.107-11.429-26.767-26.817zm204.753-23.486a68.489 68.489 0 00-2.69-15.188 62.682 62.682 0 00-11.549-22.207L214.9 79.674a2.008 2.008 0 00-2.31-1.39l-13.059 2.57 1.3-8.619 23.648 2.64.35 15.9a2.022 2.022 0 00.38 1.14c.151.207 14.73 20.634 9.701 44.371z"/></svg>