<svg height="256" width="256" xmlns="http://www.w3.org/2000/svg" fill="#3c3f5d"><path d="M230.73 96.65a1.773 1.773 0 00.1-.61 1.959 1.959 0 00-.27-.99 211.56 211.56 0 00-10.247-44.83 7.983 7.983 0 00-8.747-5.28l-.13.02a7.888 7.888 0 00-5.578 3.75 8 8 0 00-.7 6.78 194.323 194.323 0 019.407 40.65c.02.1.03.2.04.3A198.453 198.453 0 01216 120a195.179 195.179 0 01-14.955 75.28 8.093 8.093 0 00.3 6.85 7.811 7.811 0 005.278 4.02l.32.07a7.865 7.865 0 008.927-4.77A211.816 211.816 0 00232 120a213.325 213.325 0 00-1.27-23.35zm-21.793-42.47a4.008 4.008 0 01.35-3.41 3.931 3.931 0 011.18-1.25 4.01 4.01 0 011.15-.52 2.975 2.975 0 01.43-.09c.02 0 .04-.01.06-.01h.06a3.988 3.988 0 014.369 2.63 208.183 208.183 0 019.877 42.51h-8.077a199.429 199.429 0 00-9.399-39.86z"/><path d="M204.008 72a6 6 0 10-6 6 6 6 0 006-6zm-6 2a2 2 0 112-2 2.006 2.006 0 01-1.998 2zm-16.883 7.79a2 2 0 002.679-.9l16-32a2 2 0 10-3.579-1.78l-16 32a2 2 0 00.9 2.68zm.89-19.79a6 6 0 10-6-6 6 6 0 006 6zm0-8a2 2 0 11-2 2 2.006 2.006 0 012-2z"/><path d="M171.408 106.42c2.149-1.85 4.059-5.34 2.729-10.89a23.233 23.233 0 00-2.869-6.15 58.942 58.942 0 01-4.879-10.06 66.61 66.61 0 01-3.769-15.54 59.613 59.613 0 01-.08-15.39c2.1-17.03 5.428-37.87 5.458-38.07A1.994 1.994 0 00166.03 8H54.043a1.994 1.994 0 00-1.969 2.32c.03.2 3.359 21.04 5.458 38.07a59.613 59.613 0 01-.08 15.39 66.61 66.61 0 01-3.769 15.54A58.942 58.942 0 0148.8 89.38a23.233 23.233 0 00-2.869 6.15c-1.33 5.55.58 9.04 2.729 10.89a90.631 90.631 0 00-12.606 24.9c-21.853 36.32-14.506 68.86 26.152 115.99a1.991 1.991 0 001.51.69h92.632a1.991 1.991 0 001.51-.69c40.658-47.13 48.006-79.67 26.152-115.99a90.631 90.631 0 00-12.602-24.9zm-61.381 111.43a123.673 123.673 0 00-10.117-31.41 25.47 25.47 0 0020.254-.08 123.519 123.519 0 00-10.137 31.49zM49.825 96.47a19.822 19.822 0 012.429-5.07 61.646 61.646 0 005.189-10.7 70.517 70.517 0 003.969-16.39A63.482 63.482 0 0061.5 47.9c-1.7-13.76-4.188-29.97-5.117-35.9H163.69c-.93 5.93-3.419 22.14-5.118 35.9a63.482 63.482 0 00.09 16.41 70.517 70.517 0 003.969 16.39 61.646 61.646 0 005.189 10.7 19.822 19.822 0 012.429 5.07c1.42 5.91-2.169 7.47-2.6 7.64h-.01a2.454 2.454 0 00-.24.1q-4.754 2.37-9.517 4.34a1.951 1.951 0 00-.51-1.97 1.994 1.994 0 00-2.829.02c-.02.02-2.549 2.58-5.858 5.57-.03.03-.07.06-.1.09-5.139 4.64-9.387 7.8-11.966 8.9-11.057 4.71-24.2 2.88-24.343 2.86A2.645 2.645 0 00112 124h-3.919a2.645 2.645 0 00-.28.02c-.14.02-13.256 1.87-24.343-2.86-2.579-1.1-6.828-4.26-11.966-8.9-.03-.03-.07-.06-.1-.09-3.309-2.99-5.838-5.55-5.858-5.57a1.994 1.994 0 00-2.829-.02 1.951 1.951 0 00-.51 1.97q-4.754-1.965-9.517-4.34a2.454 2.454 0 00-.24-.1.389.389 0 01-.06-.02c-.514-.2-3.953-1.78-2.553-7.62zm-11.047 38.11c7.948 2.96 36.369 15.4 54.374 47.54a1.877 1.877 0 00.39.72c7.328 13.29 12.866 29.9 14.486 50.53-.26 3.43-.42 6.98-.46 10.63H64.64c-38.328-44.65-45.666-75.54-25.862-109.42zM155.433 244h-43.867c.04-3.64.2-7.15.47-10.56 1.61-20.66 7.138-37.29 14.446-50.59l.03-.03a1.943 1.943 0 00.5-.91c17.988-31.96 46.266-44.35 54.288-47.33 19.8 33.88 12.461 64.77-25.867 109.42z"/><path d="M110.037 97a2.006 2.006 0 002-2v-5a2 2 0 10-4 0v5a2.006 2.006 0 002 2z"/></svg>