<svg width="64pt" height="64pt" viewBox="0 0 22.578 22.578" xmlns="http://www.w3.org/2000/svg"><g stroke-width=".771"><path style="-inkscape-stroke:none" d="M14.8 2.018c-.574 0-1.06.457-1.06 1.03v.874a.343.343 0 00.345.342h5.434a.343.343 0 00.342-.342v-.874c0-.573-.486-1.03-1.06-1.03z" color="#000" fill="#a3b9c9"/><path style="-inkscape-stroke:none" d="M19.861 3.922v-.874c0-.573-.486-1.03-1.06-1.03H14.8c-.473 0-.885.31-1.016.74a1.06 1.06 0 01.33-.053h4c.574 0 1.06.456 1.06 1.03z" color="#000" fill="#97abba"/><path style="-inkscape-stroke:none" d="M14.085 3.577a.343.343 0 00-.31.193L12.03 7.36a.343.343 0 00.307.495h3.495a.343.343 0 00.31-.495L14.39 3.77a.343.343 0 00-.306-.193z" color="#000" fill="#c8dae5"/><path style="-inkscape-stroke:none" d="M12.336 7.169a.343.343 0 00-.342.342v12.706a.343.343 0 00.342.342h3.495a.343.343 0 00.342-.342V7.511a.343.343 0 00-.342-.342z" color="#000" fill="#c8dae5"/><path style="-inkscape-stroke:none" d="M5.528 8.477c-.434-1.445-.169-3.313-1.148-4.461a1.092 1.092 0 00-.735-.276c-.29 0-.576.146-.778.364-.203.22-.343.502-.45.827-.212.65-.296 1.49-.296 2.413 0 .425.072.675.114.996a.34.34 0 00.013.056l.563 1.832z" color="#000" fill="#26783f"/><path style="-inkscape-stroke:none" d="M6.689 5.169L4.544 6.528a.343.343 0 00-.15.377l.962 3.643a.343.343 0 00.537.187l2.35-1.754a.343.343 0 00.136-.236l.317-2.734-.791-.892z" color="#000" fill="#26783f"/><path style="-inkscape-stroke:none" d="M6.689 5.856c.223-.168.454-.293.705-.345.25-.052.523-.017.755.116.27.157.436.422.508.717l.039-.334a.328.328 0 00.003-.053c-.015-.408-.19-.808-.55-1.016-.276-.16-.482-.131-.755-.117-.25.052-.482.178-.705.345zM4.818 4.667a1.8 1.8 0 00-.438-.651 1.092 1.092 0 00-.734-.276c-.29 0-.577.146-.78.364-.202.22-.341.501-.448.827-.213.65-.297 1.49-.297 2.413 0 .081.004.157.008.228.025-.742.112-1.414.29-1.955.106-.325.245-.607.448-.826.202-.218.489-.365.8-.365.268 0 .522.107.713.277z" color="#000" fill="#1f6636"/><path d="M7.633 4.801a1.106 1.106 0 00-.24.023c-.25.052-.481.177-.704.345L4.545 6.527a.343.343 0 00-.15.378l.95 3.603.26.014a.55.55 0 000 .003.921.921 0 00.901-.629l1.095-3.53.005-.016.008-.018a.55.55 0 00.015-.053c.132-.493.237-.973.3-1.432a1.083 1.083 0 00-.296-.046z" fill="#1f6636"/><path style="-inkscape-stroke:none" d="M4.38 4.016a1.102 1.102 0 00-.342-.207c-.174.428-.322.895-.454 1.388a9.177 9.177 0 00-.264 1.371v.023l-.276 2.856v.003c-.032.335.16.668.442.844L5.4 8.812z" color="#000" fill="#1f6636"/><path style="-inkscape-stroke:none" d="M5.67 2.401c-.252.159-.46.395-.647.682-.373.573-.67 1.365-.91 2.256a8.638 8.638 0 00-.245 1.295L3.59 9.501a.343.343 0 00.322.375l1.721.099c.158.009.3-.09.348-.24L7.094 6.15l.005-.013c.24-.891.375-1.724.337-2.408-.018-.342-.078-.649-.218-.912a1.103 1.103 0 00-.679-.56 1.105 1.105 0 00-.87.144z" color="#000" fill="#349951"/><path style="-inkscape-stroke:none" d="M15.831 7.169a.343.343 0 00-.345.342v12.706a.343.343 0 00.345.342h4.748c.557 0 1.029-.444 1.029-1V7.51a.343.343 0 00-.343-.342z" color="#000" fill="#e2f0fa"/><path style="-inkscape-stroke:none" d="M20.92 10.524v9.978c.396-.138.687-.506.687-.944V7.511a.343.343 0 00-.342-.342h-5.434a.343.343 0 00-.344.342v1.031h3.452a1.982 1.982 0 011.982 1.982z" color="#000" fill="#c8dae5"/><path style="-inkscape-stroke:none" d="M14.085 3.577a.343.343 0 00-.31.495l1.747 3.591a.343.343 0 00.31.193h5.433a.343.343 0 00.307-.495L19.826 3.77a.343.343 0 00-.307-.193z" color="#000" fill="#e2f0fa"/><path style="-inkscape-stroke:none" d="M18.591 11.227c-.238-.049-.508.015-.757.175-.363.232-.65.587-.743 1.036-.117.563.225.994.459 1.298.117.152.215.286.258.378.073.258-.169.393-.317.443-.182.068-.438.104-.71.152-.27.05-.564.106-.828.29-.264.183-.455.521-.467.935v4.283c.001.19.156.343.345.343h4.748c.557 0 1.029-.444 1.029-1.002V12.48a.343.343 0 00-.163-.291c-.225-.14-.418-.217-.605-.241a1.012 1.012 0 00-.472.058c-.23.085-.243.142-.497.079-.243-.061-.441-.295-.724-.548-.142-.126-.317-.26-.556-.309z" color="#000" fill="#70c2ef"/><path style="-inkscape-stroke:none" d="M15.487 17.127v.685h2.142c.19 0 .344-.153.344-.343a.343.343 0 00-.344-.342zm0 1.372v.686h2.142a.343.343 0 100-.686zm3.979-9.956a.343.343 0 00-.343.342.343.343 0 00.343.344h2.141v-.686z" color="#000" fill="#5aabdd"/><path style="-inkscape-stroke:none" d="M16.972 4.852c-.4 0-.807.065-1.1.358a.343.343 0 000 .484.343.343 0 00.484 0c.05-.05.33-.155.616-.155s.565.104.616.155a.343.343 0 00.486 0 .343.343 0 000-.484c-.293-.293-.702-.358-1.102-.358z" color="#000" fill="#5b6571"/><path style="-inkscape-stroke:none" d="M12.336 7.169a.343.343 0 00-.342.342v3.357l.2-.216a.6.6 0 00.005-.018c.943-.717 1.181-1.882 1.295-2.641a.97.97 0 00-.298-.824z" color="#000" fill="#a3b9c9"/><path d="M11.994 9.14v11.077a.343.343 0 00.033.139c2.067-.778 3.481-3.075 3.482-5.646v-.016a.614.614 0 000-.001.614.614 0 000-.001.614.614 0 000-.001.614.614 0 000-.001.614.614 0 000-.001.614.614 0 000-.002.614.614 0 000-.002.614.614 0 000-.001.614.614 0 000-.001.614.614 0 000-.001.614.614 0 000-.001c-.032-1.322-.51-2.961-1.543-4.203-.499-.598-1.155-1.11-1.972-1.337zm.296-2.315l-.26.537a.343.343 0 00.306.494h1.168c-.006-.428-.332-.842-.755-.928-.15-.03-.302-.067-.459-.103z" fill="#a3b9c9"/><path style="-inkscape-stroke:none" d="M11.22 7.278c-.487-.007-1.013.132-1.621.522a.343.343 0 00-.006.005l-2.61 1.736a.343.343 0 00-.079.5l2.076 2.613a.343.343 0 00.522.02l2.254-2.43-.077.06c.88-.522 1.103-1.608 1.222-2.4a.343.343 0 00-.271-.388c-.495-.1-.921-.231-1.41-.238z" color="#000" fill="#349951"/><path style="-inkscape-stroke:none" d="M10.86 7.3c.36.044.701.139 1.083.216.18.036.3.207.272.388-.117.78-.335 1.842-1.178 2.374l-2.125 2.291.068.085a.343.343 0 00.522.02l2.222-2.396c.842-.532 1.06-1.595 1.177-2.374a.343.343 0 00-.271-.388c-.622-.175-1.156-.262-1.77-.215z" color="#000" fill="#26783f"/><path style="-inkscape-stroke:none" d="M4.912 8.482c.597.16 1.166.457 1.513.813.347.357.482.72.33 1.171L3.16 19.373c-.19.472-.667.732-1.316.558-.65-.174-.935-.637-.864-1.14l1.343-9.516c.095-.464.392-.71.87-.844.478-.135 1.12-.11 1.718.05z" color="#000" fill="#fca311"/><path d="M6.292 9.171c-.308.147-.6.33-.875.543-1.37 1.06-2.366 2.883-2.366 4.99v.018a6.75 6.75 0 00.743 3.083l2.96-7.338z" fill="#ec7523"/><path d="M7.078 6.204c-.524.06-1.04.228-1.547.435a.967.967 0 00-.525.989c.105.712.33 1.563.88 2.253a.343.343 0 00.096-.147z" fill="#26783f"/><path style="-inkscape-stroke:none" d="M3.193 8.431c-.439.124-.725.342-.842.737.615-.173 1.34-.136 1.905.012.567.149 1.136.446 1.482.803.347.356.482.72.33 1.17l-3.55 8.797a.939.939 0 00.643-.576l3.593-8.907c.153-.451.018-.815-.329-1.171-.347-.356-.916-.654-1.522-.818-.607-.164-1.185-.18-1.71-.047z" color="#000" fill="#ec7523"/><path style="-inkscape-stroke:none" d="M5.219 8.582c.21.673.576 1.355 1.234 1.852l.209.262.092-.23c.152-.45.018-.814-.329-1.17C6.138 9 5.7 8.746 5.22 8.582z" color="#000" fill="#e05e10"/><path d="M6.78 10.383c.12-.508-.13-.86-.476-1.2l-.012-.012H6.29c-.307.146-.599.33-.873.542a2.3 2.3 0 01.32.27c.347.356.482.72.33 1.171l-2.494 6.18c.068.161.14.319.22.471l.957-2.374z" fill="#e05e10"/><path style="-inkscape-stroke:none" d="M9.85 8.269a3.037 3.037 0 00-1.167-1.214c-1.03-.426-1.906-.28-2.897.124a.343.343 0 00-.19.36c.14.94.438 2.004 1.402 2.583z" color="#000" fill="#349951"/><path style="-inkscape-stroke:none" d="M7.65 8.071a.343.343 0 00-.454.178.343.343 0 00.177.45c.534.233 1.11.579 1.605 1.017a.343.343 0 00.484-.03.343.343 0 00-.028-.484 6.812 6.812 0 00-1.785-1.13z" color="#000" fill="#1f6636"/><path style="-inkscape-stroke:none" d="M10.275 6.768C9.55 7.6 8.79 8.878 8.79 10.112a.343.343 0 00.687 0c-.001-.93.671-2.154 1.315-2.893a.343.343 0 00-.033-.484c-.185-.13-.354-.096-.484.033z" color="#000" fill="#1f6636"/><path style="-inkscape-stroke:none" d="M2.102 10.853l-.2 1.419c.254.272.593.48.982.585a.343.343 0 00.178-.665c-.773-.207-1.02-.711-.956-1.226a.343.343 0 00-.004-.113zm-.291 2.06l-.2 1.416c.255.272.593.48.982.583a.343.343 0 10.177-.664c-.728-.195-1.02-.714-.955-1.229a.345.345 0 00-.004-.106zm-.29 2.053l-.2 1.415c.255.272.594.48.983.584.183.05.37-.058.42-.24a.343.343 0 00-.243-.421c-.747-.2-1.02-.714-.955-1.23a.34.34 0 00-.005-.108zm-.263 1.86l-.2 1.415c.255.272.593.48.982.584a.343.343 0 00.18-.664c-.872-.45-1-.757-.962-1.334z" color="#000" fill="#fec872"/><path style="-inkscape-stroke:none" d="M7.776 9.398c-.695.033-1.381.325-1.987.795-1.213.94-2.132 2.6-2.132 4.512l.001.006v.007c.004 2.893 1.94 5.305 4.412 5.305.393 0 .774-.09 1.136-.23.393.131.82.23 1.277.23 2.475 0 4.413-2.417 4.413-5.315v-.011c-.03-1.177-.485-2.725-1.402-3.826-.458-.55-1.042-.989-1.751-1.163-.654-.16-1.4-.084-2.197.289-.465-.466-1.153-.597-1.77-.6z" color="#000" fill="#dc1c4b"/><path style="-inkscape-stroke:none" d="M6.302 12.247a.329.329 0 00.241.421c.184.05.374-.06.422-.244a.336.336 0 00-.244-.419c-.19-.042-.364.034-.42.242zm-.93.817c-.056.208.058.371.241.421.183.05.374-.06.423-.243a.336.336 0 00-.245-.42c-.19-.042-.363.034-.419.242zm1.327.355c-.054.2.058.372.241.422.184.05.373-.06.422-.244a.336.336 0 00-.244-.42c-.19-.042-.366.042-.42.242z" color="#000" fill="#f0517a"/><path style="-inkscape-stroke:none" d="M18.832 3.577a.343.343 0 01.307.193l1.746 3.592a.343.343 0 01-.306.494h.686a.343.343 0 00.307-.494L19.826 3.77a.343.343 0 00-.307-.193z" color="#000" fill="#c8dae5"/><path style="-inkscape-stroke:none" d="M19.466 8.543a.343.343 0 00-.152.037 1.982 1.982 0 011.125.65h1.168v-.687zm1.454 3.417v8.542l.003-.001c.443-.162.684-.49.684-.943V12.48a.343.343 0 00-.162-.291 1.627 1.627 0 00-.524-.227z" color="#000" fill="#3485d0"/></g></svg>