<svg width="64pt" height="64pt" viewBox="0 0 22.578 22.578" xmlns="http://www.w3.org/2000/svg"><g stroke-width=".796" color="#000"><path style="-inkscape-stroke:none" d="M18.485 7.25a.333.333 0 00-.331.328l-.02 1.33a.333.333 0 00.334.337h.85c.532 0 .942-.464.942-.997 0-.532-.41-.999-.943-.999z" fill="#c8dae5"/><path style="-inkscape-stroke:none" d="M18.485 7.25a.333.333 0 00-.331.328l-.02 1.331a.333.333 0 00.334.337h.85a.958.958 0 00.152-.013l.014-.99a.333.333 0 01.331-.328h.39c-.129-.38-.47-.666-.887-.666z" fill="#b0c3d3"/><path style="-inkscape-stroke:none" d="M10.025 6.918a.333.333 0 00-.101.014l-1.07.332a.333.333 0 00-.234.32v1.33a.333.333 0 00.234.317l1.07.333a.333.333 0 00.1.015h1.071a.333.333 0 00.098-.015l1.073-.333a.333.333 0 00.233-.317v-1.33a.333.333 0 00-.233-.32l-1.073-.332a.333.333 0 00-.098-.014z" fill="#c8dae5"/><path style="-inkscape-stroke:none" d="M9.974 6.925c-.034 0-1.12.34-1.12.34a.333.333 0 00-.234.318v.009a.294.294 0 01.074-.009c.859-.11 1.438.098 2.242.347a.33.33 0 01.233.318l.012 1.32 1.085-.337a.333.333 0 00.234-.317v-1.33a.333.333 0 00-.234-.32l-1.122-.339c-.032-.01-1.17 0-1.17 0z" fill="#b0c3d3"/><path style="-inkscape-stroke:none" d="M7.815 6.252a.333.333 0 00-.331.332V9.91a.333.333 0 00.331.333h.471c.548 0 .997-.452.997-.999V7.25c0-.547-.45-.997-.997-.997z" fill="#b0c3d3"/><path style="-inkscape-stroke:none" d="M1.913 7.25c-.533 0-.943.466-.943.998 0 .533.41.997.943.997h.72a.333.333 0 00.333-.326l.017-1.331a.333.333 0 00-.331-.339z" fill="#c8dae5"/><path style="-inkscape-stroke:none" d="M1.888 7.25c-.406.01-.737.293-.863.664h.296c.186 0 .336.153.332.339l-.012.95a.892.892 0 00.272.042h.72a.331.331 0 00.333-.326l.018-1.331a.333.333 0 00-.332-.339z" fill="#b0c3d3"/><path style="-inkscape-stroke:none" d="M3.244 6.75c-.533 0-.943.468-.943 1v.997c0 .532.41.997.943.997h.608a.333.333 0 00.332-.332V7.085a.333.333 0 00-.332-.334z" fill="#3a4d5c"/><path style="-inkscape-stroke:none" d="M3.219 6.751c-.406.011-.737.293-.863.665h.166c.184 0 .332.15.332.334v1.904c.118.057.25.09.39.09h.608a.333.333 0 00.332-.332V7.085a.333.333 0 00-.332-.334z" fill="#143441"/><path style="-inkscape-stroke:none" d="M7.815 6.252a.333.333 0 00-.332.332v3.327a.333.333 0 00.332.334h.471a.986.986 0 00.528-.154V6.405a.99.99 0 00-.528-.153z" fill="#97abba"/><path style="-inkscape-stroke:none" d="M7.942 9.301a1.69 1.69 0 00-.458.063v.547a.333.333 0 00.33.333h.472c.478 0 .88-.343.976-.794a1.748 1.748 0 00-.709-.149z" fill="#97abba"/><path style="-inkscape-stroke:none" d="M4.766 5.256c-.701 0-1.247.612-1.247 1.328V9.91c0 .715.546 1.33 1.247 1.33h.307c.533 0 .94-.464.94-.997V6.252c0-.532-.407-.996-.94-.996zM17.267 6.75a.333.333 0 00-.334.335v2.327a.333.333 0 00.334.332h.61c.532 0 .942-.465.942-.997V7.75c0-.532-.41-1-.943-1z" fill="#3a4d5c"/><path style="-inkscape-stroke:none" d="M17.267 6.751a.333.333 0 00-.333.334v2.327a.333.333 0 00.333.332h.61a.89.89 0 00.387-.089V7.75a.333.333 0 01.334-.334h.166c-.129-.38-.47-.665-.888-.665z" fill="#143441"/><path style="-inkscape-stroke:none" d="M16.047 5.256c-.533 0-.943.464-.943.996v3.992c0 .533.41.997.943.997h.305c.7 0 1.247-.615 1.247-1.33V6.584c0-.716-.546-1.328-1.247-1.328z" fill="#3a4d5c"/><path style="-inkscape-stroke:none" d="M15.105 9.31v.934c0 .533.41.998.942.998h.305c.547 0 1-.375 1.172-.88-.36-.595-.897-1.06-1.654-1.06-.251-.006-.525 0-.765.007z" fill="#143441"/><path style="-inkscape-stroke:none" d="M12.83 6.252c-.546 0-.996.45-.996.997v1.996c0 .547.45 1 .997 1h.471a.333.333 0 00.334-.334V6.584a.333.333 0 00-.334-.332z" fill="#b0c3d3"/><path style="-inkscape-stroke:none" d="M16.047 5.256c-.533 0-.943.464-.943.996v3.993c0 .532.41.996.943.996h.305c.045 0 .09-.002.135-.007a1.035 1.035 0 01-.052-.324V6.918c0-.625.48-.997.996-.997a1.233 1.233 0 00-1.08-.665z" fill="#143441"/><path style="-inkscape-stroke:none" d="M12.83 6.252a.986.986 0 00-.524.152v3.688a.983.983 0 00.525.153h.471a.333.333 0 00.334-.334V6.584a.333.333 0 00-.334-.332z" fill="#97abba"/><path style="-inkscape-stroke:none" d="M13.914 4.09c-.533 0-.943.467-.943.999v6.32c0 .531.41.996.943.996h.609c.7 0 1.247-.615 1.247-1.33V5.42c0-.716-.546-1.33-1.247-1.33z" fill="#3a4d5c"/><path style="-inkscape-stroke:none" d="M15.261 9.301c-1.042 0-1.814.891-1.814 1.871v.572a2.86 2.86 0 00-.339.18.931.931 0 00.806.481h.609c.7 0 1.247-.615 1.247-1.33V9.3zM4.765 5.256a1.23 1.23 0 00-1.078.665c.874 0 .995.45.995.996v3.993c0 .112-.017.22-.051.323.044.005.089.008.134.008h.308c.533 0 .94-.465.94-.997V6.252c0-.532-.407-.997-.94-.997z" fill="#143441"/><path style="-inkscape-stroke:none" d="M6.595 4.09c-.701 0-1.247.614-1.247 1.33v5.654c0 .716.546 1.331 1.247 1.331h.611c.533 0 .943-.465.943-.997v-6.32c0-.531-.41-.999-.943-.999z" fill="#3a4d5c"/><path style="-inkscape-stroke:none" d="M7.942 9.301c-.8 0-1.355.521-1.716 1.166h-.113a1.73 1.73 0 00-.765.174v.434c0 .715.546 1.33 1.247 1.33h.611c.533 0 .943-.464.943-.996V9.3z" fill="#143441"/><path style="-inkscape-stroke:none" d="M19.833 13.333a.333.333 0 00-.332.329l-.02 1.33a.333.333 0 00.334.337h.85c.533 0 .943-.465.943-.997s-.41-1-.943-1z" fill="#c8dae5"/><path style="-inkscape-stroke:none" d="M19.832 13.333a.333.333 0 00-.331.328l-.02 1.331a.333.333 0 00.334.337h.85a.958.958 0 00.152-.013l.014-.99a.333.333 0 01.332-.328h.39c-.13-.38-.471-.665-.888-.665z" fill="#b0c3d3"/><path style="-inkscape-stroke:none" d="M11.372 13.001a.333.333 0 00-.1.015l-1.07.331a.333.333 0 00-.234.32v1.33a.333.333 0 00.233.317l1.07.334a.333.333 0 00.101.014h1.07a.333.333 0 00.099-.014l1.073-.334a.333.333 0 00.233-.317v-1.33a.333.333 0 00-.233-.32l-1.073-.331a.333.333 0 00-.098-.015z" fill="#c8dae5"/><path style="-inkscape-stroke:none" d="M11.372 13.001a.333.333 0 00-.1.015l-1.071.332a.333.333 0 00-.233.319v.008a.333.333 0 01.074-.008h1.07a.333.333 0 01.098.014l1.073.332a.333.333 0 01.234.319v1.321a.333.333 0 00.024-.005l1.073-.334a.333.333 0 00.233-.317v-1.33a.333.333 0 00-.233-.32l-1.073-.331a.333.333 0 00-.098-.014z" fill="#b0c3d3"/><path style="-inkscape-stroke:none" d="M9.163 12.336a.333.333 0 00-.332.331v3.327a.333.333 0 00.332.334h.47c.548 0 .998-.452.998-1v-1.995c0-.548-.45-.997-.997-.997z" fill="#b0c3d3"/><path style="-inkscape-stroke:none" d="M3.26 13.333c-.532 0-.942.467-.942.999s.41.997.942.997h.72a.333.333 0 00.334-.327l.017-1.33a.333.333 0 00-.332-.34z" fill="#c8dae5"/><path style="-inkscape-stroke:none" d="M3.235 13.333c-.405.01-.736.293-.862.665h.296a.333.333 0 01.332.338l-.013.95a.892.892 0 00.273.043h.719a.333.333 0 00.334-.327l.017-1.331A.333.333 0 004 13.333h-.764z" fill="#b0c3d3"/><path style="-inkscape-stroke:none" d="M4.591 12.834c-.533 0-.943.467-.943 1v.996c0 .532.41.997.943.997H5.2a.333.333 0 00.331-.332v-2.327a.333.333 0 00-.331-.334z" fill="#3a4d5c"/><path style="-inkscape-stroke:none" d="M4.566 12.834c-.405.012-.736.294-.862.666h.165a.333.333 0 01.332.333v1.904a.88.88 0 00.39.09H5.2a.333.333 0 00.332-.331v-2.328a.333.333 0 00-.332-.334h-.634z" fill="#143441"/><path style="-inkscape-stroke:none" d="M9.163 12.335a.333.333 0 00-.332.332v3.327a.333.333 0 00.332.334h.47a.986.986 0 00.529-.154v-3.685a.99.99 0 00-.528-.154z" fill="#97abba"/><path style="-inkscape-stroke:none" d="M6.113 11.339c-.701 0-1.247.612-1.247 1.328v3.327c0 .716.546 1.33 1.247 1.33h.307c.533 0 .94-.464.94-.996v-3.992c0-.532-.407-.997-.94-.997zm12.502 1.495a.333.333 0 00-.334.334v2.327a.333.333 0 00.334.332h.609c.533 0 .942-.465.942-.997v-.997c0-.532-.41-.999-.942-.999z" fill="#3a4d5c"/><path style="-inkscape-stroke:none" d="M18.615 12.834a.333.333 0 00-.334.334v2.328a.333.333 0 00.334.331h.609a.89.89 0 00.387-.088v-1.906a.333.333 0 01.334-.333h.167c-.13-.38-.471-.666-.888-.666z" fill="#143441"/><path style="-inkscape-stroke:none" d="M17.395 11.339c-.533 0-.943.465-.943.997v3.992c0 .532.41.997.943.997h.304c.701 0 1.247-.615 1.247-1.331v-3.327c0-.716-.546-1.328-1.247-1.328z" fill="#3a4d5c"/><path style="-inkscape-stroke:none" d="M14.178 12.336a1 1 0 00-.996.997v1.996c0 .547.45.999.996.999h.472a.333.333 0 00.334-.334v-3.327a.333.333 0 00-.334-.331z" fill="#b0c3d3"/><path style="-inkscape-stroke:none" d="M17.394 11.339c-.532 0-.942.464-.942.996v3.993c0 .532.41.996.942.996h.305c.046 0 .09-.002.135-.007a1.035 1.035 0 01-.052-.324v-3.992c0-.532.41-.997.943-.997h.054a1.233 1.233 0 00-1.08-.665z" fill="#143441"/><path style="-inkscape-stroke:none" d="M14.178 12.335a.986.986 0 00-.525.152v3.688a.983.983 0 00.525.153h.472a.333.333 0 00.334-.334v-3.327a.333.333 0 00-.334-.332z" fill="#97abba"/><path style="-inkscape-stroke:none" d="M15.261 10.173c-.533 0-.943.467-.943.999v6.32c0 .532.41.996.943.996h.609c.701 0 1.247-.615 1.247-1.33v-5.655c0-.715-.546-1.33-1.247-1.33z" fill="#3a4d5c"/><path style="-inkscape-stroke:none" d="M6.113 11.339c-.467 0-.865.272-1.079.665h.056c.533 0 .94.465.94.997v3.992c0 .112-.018.221-.052.324.045.005.09.007.135.007h.307c.533 0 .94-.464.94-.996v-3.993c0-.532-.407-.996-.94-.996z" fill="#143441"/><path style="-inkscape-stroke:none" d="M7.942 10.173c-.7 0-1.247.615-1.247 1.33v5.655c0 .715.546 1.33 1.247 1.33h.612c.532 0 .942-.464.942-.996v-6.32c0-.532-.41-1-.942-1z" fill="#3a4d5c"/></g></svg>