<svg width="64pt" height="64pt" viewBox="0 0 22.578 22.578" xmlns="http://www.w3.org/2000/svg"><g stroke-width=".795"><path d="M17.716 11.321h2.816c.472 0 .853.414.853.928 0 .513-.38.927-.853.927h-5.767z" fill="#ca7d02"/><path style="-inkscape-stroke:none" d="M18.27 11.148a.333.333 0 00-.331.334.333.333 0 00.331.332h2.15c.278 0 .521.245.521.595s-.243.594-.52.594a.333.333 0 00-.332.335.333.333 0 00.331.331c.667 0 1.187-.582 1.187-1.26s-.52-1.26-1.187-1.26z" color="#000" fill="#fec872"/><path d="M4.972 11.927H2.156c-.472 0-.853-.413-.853-.927s.38-.927.853-.927h5.767z" fill="#ca7d02"/><path style="-inkscape-stroke:none" d="M2.155 9.74c-.666 0-1.184.583-1.184 1.261 0 .678.518 1.258 1.184 1.258h2.15a.333.333 0 00.335-.332.333.333 0 00-.335-.334h-2.15c-.278 0-.518-.242-.518-.592s.24-.595.518-.595a.333.333 0 00.335-.334.333.333 0 00-.335-.331z" color="#000" fill="#fec872"/><path style="-inkscape-stroke:none" d="M10.115 3.507a.333.333 0 00-.002.003L4.275 4.984A1.519 1.519 0 003.133 6.64l1.285 10.612c.028.234.11.517.326.766.216.25.546.458 1.032.63.973.341 2.604.555 5.511.555 2.908 0 4.541-.214 5.514-.556.486-.17.816-.379 1.032-.629.216-.25.298-.532.327-.766.429-3.537.853-7.076 1.285-10.612A1.52 1.52 0 0018.3 4.984h-.003L12.32 3.507a4.653 4.653 0 00-2.204 0z" color="#000" fill="#4895ef"/><path style="-inkscape-stroke:none" d="M10.187 3.49c0 .002-5.912 1.494-5.912 1.494A1.519 1.519 0 003.132 6.64l.021.174A1.519 1.519 0 014.275 5.65l6.201-1.564c.363-.09 1.12-.09 1.843.087 1.054.265 2.112.51 3.162.788 1.439.38 2.553 1.894 2.406 3.374-.271 2.729-.752 6.387-1.059 8.917a1.415 1.415 0 01-.327.767c-.215.25-.545.458-1.031.629-.896.315-2.354.52-4.848.55.215.003.435.005.666.005 2.907 0 4.54-.213 5.513-.555.486-.171.816-.38 1.032-.63.215-.249.298-.532.327-.766.45-3.71.896-7.425 1.285-10.612a1.515 1.515 0 00-.341-1.152 1.513 1.513 0 00-.804-.504h-.003L12.32 3.507c-.752-.186-1.4-.154-2.132-.016z" color="#000" fill="#2c5eb5"/><path style="-inkscape-stroke:none" d="M9.221 5.134c-.547.364-.929.905-.929 1.53 0 .303.056.619.28.873a.333.333 0 00.251.113h4.843a.334.334 0 00.216-.079c.25-.21.403-.54.403-.907 0-.625-.382-1.166-.929-1.53-.547-.365-1.273-.578-2.069-.578-.795 0-1.519.213-2.066.578z" color="#000" fill="#ececec"/><path style="-inkscape-stroke:none" d="M11.288 6.198a.333.333 0 00-.332.334v1.117h.666V6.532a.333.333 0 00-.334-.334z" color="#000" fill="#143441"/><path style="-inkscape-stroke:none" d="M17.062 13.421c.246-1.17.329-3.334.329-3.334a.333.333 0 00-.334-.347h-3.539a.333.333 0 00-.331.303s-.206 2.208-.54 3.216l-.36 1.654c.035.405.118.935.362 1.403.243.468.71.887 1.37.887.864 0 1.5-.267 1.922-.698.423-.431.625-.993.745-1.55zM5.187 10.087s.082 2.164.329 3.334l.376 1.534c.12.557.322 1.119.744 1.55.423.43 1.059.698 1.922.698.66 0 1.127-.42 1.37-.887.244-.468.328-.998.362-1.403l-.359-1.654c-.334-1.008-.54-3.216-.54-3.216z" color="#000" fill="#1d5c87"/><path style="-inkscape-stroke:none" d="M3.984 13.67l.265 2.186h14.08l.264-2.187z" color="#000" fill="#2c5eb5"/><path style="-inkscape-stroke:none" d="M12.288 14.913c.023.277.069.61.173.943h3.929c.138-.287.23-.595.295-.901zm-6.396.042c.066.306.157.614.296.901h3.928c.104-.333.15-.666.174-.943z" color="#000" fill="#163f64"/><path style="-inkscape-stroke:none" d="M3.404 8.883l.265 2.19h15.238l.266-2.19z" color="#000" fill="#2c5eb5"/><path style="-inkscape-stroke:none" d="M13.187 10.043s-.042.447-.119 1.03h4.268c.038-.568.055-.986.055-.986zm-8 .044s.016.418.055.985h4.267c-.076-.582-.118-1.029-.118-1.029z" color="#000" fill="#163f64"/><path style="-inkscape-stroke:none" d="M19.91 10.407c.184 0 .334-.15.333-.335v-1.52a.333.333 0 00-.334-.335H2.155C1.488 8.217.97 8.8.97 9.477v1.478l.001.006v.04a.333.333 0 00.665 0c0-.35.24-.594.519-.594z" color="#000" fill="#fec872"/><path style="-inkscape-stroke:none" d="M20.28 7.846a.71.71 0 00-.702.705v1.521a.71.71 0 00.702.705h.624a.71.71 0 00.703-.705v-1.52a.71.71 0 00-.703-.706z" color="#000" fill="#ccc"/><path style="-inkscape-stroke:none" d="M5.408 8.217v2.19h.665v-2.19h-.665zm4.882 0v2.19h.666v-2.19h-.666zm4.882 0v2.19h.666v-2.19h-.666z" color="#000" fill="#fca311"/><path style="-inkscape-stroke:none" d="M20.945 12.386c0 .408-.238.618-.547.618H2.668a.333.333 0 00-.334.331v1.523c0 .184.15.333.334.333H20.42c.667 0 1.187-.583 1.187-1.261 0-.51.001-1.032-.003-1.539z" color="#000" fill="#fec872"/><path style="-inkscape-stroke:none" d="M1.673 12.633a.708.708 0 00-.703.702v1.524c0 .384.319.702.703.702h.624A.708.708 0 003 14.86v-1.524a.708.708 0 00-.703-.702z" color="#000" fill="#ccc"/><path style="-inkscape-stroke:none" d="M6.74 13.004v2.187h.665v-2.187H6.74zm4.882 0v2.187h.666v-2.187h-.666zm4.882 0v2.187h.666v-2.187h-.666z" color="#000" fill="#fca311"/><path style="-inkscape-stroke:none" d="M20.28 7.846a.71.71 0 00-.702.667h.661a.71.71 0 01.703.704v1.521l-.002.038a.71.71 0 00.667-.704v-1.52a.71.71 0 00-.702-.706zM1.673 12.632a.71.71 0 00-.702.667.637.637 0 01.036 0h.624c.384 0 .703.318.703.702v1.559A.709.709 0 003 14.858v-1.523a.708.708 0 00-.703-.703z" color="#000" fill="#bfbfbf"/><path style="-inkscape-stroke:none" d="M9.221 5.134c-.274.182-.506.41-.67.669l.004-.004c.547-.364 1.272-.577 2.067-.577.795 0 1.522.213 2.069.577.547.365.929.906.929 1.531a1.3 1.3 0 01-.041.32h.087a.33.33 0 00.216-.08c.25-.21.403-.538.403-.905 0-.626-.382-1.167-.929-1.531-.547-.365-1.273-.578-2.068-.578-.796 0-1.52.213-2.067.578z" color="#000" fill="#ccc"/></g></svg>