<svg width="64pt" height="64pt" viewBox="0 0 22.578 22.578" xmlns="http://www.w3.org/2000/svg"><g stroke-width=".795"><path style="-inkscape-stroke:none" d="M9.848 7.803a.333.333 0 00-.327.268L9.2 9.685a.333.333 0 00.01.16s.104.35.393.683c.29.334.796.673 1.526.673s1.237-.339 1.526-.673a2.09 2.09 0 00.396-.683.333.333 0 00.007-.16l-.32-1.614a.333.333 0 00-.326-.268z" color="#000" fill="#ffccbc"/><path style="-inkscape-stroke:none" d="M14.237 21.607a.333.333 0 00.324-.265l.442-2.155a.332.332 0 00.008-.093l-.165-2.03c.63-.996 1.192-2.324 1.192-2.324a.333.333 0 00.022-.175 4.36 4.36 0 01-.027-.867l2.245-.924a.333.333 0 00.177-.445l-.108-.24a5.085 5.085 0 00-1.086-1.787.333.333 0 00-.172-.093l-4.31-.865a.332.332 0 00-.144.005.82.82 0 00-.364.214c-.083.076-.186.144-.267.204-.161.12-.328.238-.864.238s-.74-.118-.902-.238c-.08-.06-.185-.128-.267-.204a.82.82 0 00-.364-.214.332.332 0 00-.145-.005l-3.973.865a.333.333 0 00-.172.093s-.736.736-1.086 1.786l-.108.241a.333.333 0 00.177.445l2.246.924c.012.264.02.55-.027.867a.326.326 0 00.022.175s.561 1.328 1.192 2.324l-.165 2.03a.332.332 0 00.007.093l.443 2.155a.333.333 0 00.324.265z" color="#000" fill="#dc1c4b"/><path d="M14.863 18.082l-1.202.425c-.499.173-.67.746-.473 1.215-.288.273-.406.692-.224 1.055l.413.83h.86a.333.333 0 00.324-.265l.442-2.155a.334.334 0 00.007-.093l-.082-1.015z" fill="#801231"/><path style="-inkscape-stroke:none" d="M15.303 18.546l-1.45.51a.333.333 0 00-.164.505l.218.316-.314.217a.333.333 0 00-.108.422l.451.907a.333.333 0 00.426.16l1.224-.5a.333.333 0 00.14-.107l.744-1.035c.634-.233 1.265-.844 1.727-1.514.459-.664.763-1.373.678-2.01.46-1.703-.138-3.426-.414-4.08l-.127-.286-2.955 1.206-.02.259c-.052.793.09 2.071.978 3.064-.371.415-.844 1.11-1.034 1.966z" color="#000" fill="#ffccbc"/><path style="-inkscape-stroke:none" d="M15.1 12.584a.461.461 0 01.05.007v-.001c.18.035.297.209.263.389 0 0-.206 1.182.168 2.308.028.083.059.167.093.25-.107.224-.234.477-.372.736-.924-1.542-.542-3.42-.542-3.42a.333.333 0 01.34-.269z" color="#000" fill="#801231"/><path style="-inkscape-stroke:none" d="M18.334 12.05l-.564.23.025.057c.276.654.874 2.377.415 4.08.085.637-.22 1.346-.678 2.01-.462.67-1.094 1.28-1.728 1.514l-.744 1.035a.333.333 0 01-.14.108l-.954.388c.09.122.252.17.396.11l1.224-.498a.333.333 0 00.14-.108l.744-1.035c.634-.233 1.265-.844 1.727-1.514.459-.664.763-1.373.678-2.01.46-1.703-.138-3.426-.414-4.08z" color="#000" fill="#ffa185"/><path d="M13.365 9.462l.016.307 3.452.888.937 1.624.577-.193a5.078 5.078 0 00-1.086-1.786.333.333 0 00-.172-.093zm-5.649 8.62l1.201.425c.5.173.67.746.474 1.215.288.273.405.692.224 1.055l-.414.83h-.86a.333.333 0 01-.323-.265l-.443-2.155a.334.334 0 01-.007-.093l.082-1.015z" fill="#801231"/><path style="-inkscape-stroke:none" d="M7.276 18.546l1.45.51a.334.334 0 01.164.505l-.219.316.315.217a.333.333 0 01.108.422l-.452.907a.333.333 0 01-.425.16l-1.224-.5a.333.333 0 01-.14-.107l-.744-1.035c-.635-.233-1.266-.844-1.728-1.514-.458-.664-.763-1.373-.678-2.01-.46-1.703.138-3.426.415-4.08l.126-.286L7.2 13.257l.02.259c.053.793-.089 2.071-.978 3.064.372.415.844 1.11 1.035 1.966z" color="#000" fill="#ffccbc"/><path style="-inkscape-stroke:none" d="M7.479 12.584c-.017.001-.033.004-.05.007v-.001a.334.334 0 00-.264.389s.207 1.182-.167 2.308c-.028.083-.06.167-.094.25.108.224.234.477.373.736.924-1.542.542-3.42.542-3.42a.333.333 0 00-.34-.269zm3.649.466a.978.978 0 00-.973.972c0 .534.44.976.973.976a.98.98 0 00.973-.976.978.978 0 00-.973-.973z" color="#000" fill="#801231"/><path d="M9.848 7.803a.333.333 0 00-.326.268l-.164.822c.328.214.705.355 1.129.355h1.283c.424 0 .802-.142 1.13-.356l-.162-.82a.333.333 0 00-.327-.269z" fill="#ffa185"/><path style="-inkscape-stroke:none" d="M8.246 4.815a.819.819 0 00-.813.814v.32c0 .444.368.812.813.812l.243-.002c.181.475.403.933.71 1.26.367.39.805.664 1.288.664h1.283c.483 0 .921-.274 1.287-.664.308-.327.53-.786.71-1.26l.241.002a.818.818 0 00.818-.813v-.32a.815.815 0 00-.8-.8V3.565a.333.333 0 00-.335-.334H8.566a.333.333 0 00-.332.334z" color="#000" fill="#ffccbc"/><path style="-inkscape-stroke:none" d="M11.128.97c-.998 0-1.682.167-2.125.344a2.298 2.298 0 00-.673.393c-.612.612-.58 1.531-.452 2.256a6.57 6.57 0 00.383 1.314.333.333 0 00.54.106s.525-.681.89-1.477c.2.086.587.293 1.437.293.85 0 1.24-.207 1.44-.293a8.76 8.76 0 00.887 1.477.333.333 0 00.543-.106s.253-.59.381-1.314c.128-.725.16-1.644-.452-2.256 0 0-.23-.216-.673-.393-.443-.177-1.128-.344-2.126-.344z" color="#000" fill="#3a4d5c"/><path style="-inkscape-stroke:none" d="M11.128.97c-.998 0-1.682.167-2.125.344a2.298 2.298 0 00-.673.393 1.65 1.65 0 00-.304.42 2.84 2.84 0 01.311-.147c.443-.177 1.127-.344 2.125-.344s1.683.167 2.126.344c.443.177.673.393.673.393.611.611.58 1.53.452 2.255-.053.302-.128.58-.197.803a.333.333 0 00.482-.154s.253-.59.381-1.314c.128-.725.159-1.644-.452-2.256 0 0-.23-.216-.673-.393-.443-.177-1.128-.344-2.126-.344z" color="#000" fill="#143441"/><path style="-inkscape-stroke:none" d="M8.343 1.695c-.624.624-.593 1.543-.466 2.268.06.332.145.635.22.867a.82.82 0 00-.664.799v.319c0 .445.368.813.813.813h.19c.182.49.449.923.764 1.258.09.095.183.184.28.263l-.221 1.107-3.777.822a.334.334 0 00-.165.091s-.72.72-1.075 1.754c-.065.128-1.157 2.322-.552 4.426-.057.62.248 1.303.691 1.945.443.642 1.039 1.23 1.709 1.53l.763 1.019a.334.334 0 00.14.108l1.224.498h6.145l1.224-.498a.333.333 0 00.14-.108l.764-1.02c.669-.302 1.265-.888 1.707-1.529.443-.642.748-1.326.692-1.945.583-2.031-.42-4.152-.548-4.411a5.105 5.105 0 00-1.08-1.769.333.333 0 00-.172-.093L13 9.389l-.22-1.108c.098-.079.191-.167.28-.262.315-.335.58-.769.762-1.258h.192a.819.819 0 00.813-.813v-.32a.82.82 0 00-.665-.798c.072-.225.155-.517.213-.838.13-.71.17-1.61-.424-2.259 0 0-.253-.242-.696-.419-.443-.177-1.147-.344-2.126-.344-1.838 0-2.614.574-2.785.725zm4.665.239c.358.143.462.26.462.26.342.372.365 1.054.25 1.68-.046.257-.077.278-.137.47-.194-.249-.347-.35-.54-.908-.097-.202-.296-.27-.46-.188 0 0-.568.285-1.455.285-.777 0-1.33-.23-1.465-.29-.205-.07-.393.023-.452.196-.177.533-.337.64-.535.895-.062-.198-.096-.221-.143-.486-.112-.636-.082-1.316.267-1.668.052-.046.648-.544 2.336-.544.923.002 1.516.155 1.872.298zm-.447 1.975c.307.678.727 1.253.853 1.42a.5.5 0 00.315.15h.284c.088 0 .147.062.147.15v.319c0 .088-.06.148-.147.148h-.365a.333.333 0 00-.382.228 3.208 3.208 0 01-.693 1.238c-.286.305-.59.455-.803.455h-1.283c-.213 0-.518-.15-.804-.455a3.208 3.208 0 01-.693-1.238.333.333 0 00-.377-.228h-.367a.14.14 0 01-.148-.148v-.32c0-.087.06-.15.148-.15h.305c.11 0 .195-.025.25-.096.002-.001.552-.547.918-1.405.304.101.795.221 1.418.221.842-.002 1.223-.203 1.424-.29zM10.09 8.62c.65.092 1.433.125 2.077 0l.174.88c-.357.375-.854.5-1.221.504-.524.022-.873-.189-1.207-.493zm2.283 2.944c-.133.406-.315.802-.53 1.074-.217.272-.434.41-.716.41s-.499-.138-.714-.41c-.216-.272-.399-.668-.532-1.074a8.547 8.547 0 01-.324-1.474c.436.415 1.103.575 1.563.58.633-.017 1.135-.194 1.577-.59-.033.28-.128.886-.324 1.484zm-.45 1.901c.17-.112.317-.254.442-.412.295-.371.495-.831.642-1.282a9.12 9.12 0 00.356-1.632l3.465.696c.051.053.6.622.88 1.445l.001.005-1.605.66.006-.032a.333.333 0 10-.646-.158s-.21.826-.083 1.818c-.135.32-.631 1.463-1.15 2.242a.333.333 0 00-.057.214l.167 1.855-.489.172a.333.333 0 00-.164.503l.218.316-.314.218a.333.333 0 00-.108.422l.212.425H8.88l.213-.425a.333.333 0 00-.108-.422l-.317-.219.219-.315a.333.333 0 00-.163-.503l-.488-.172.164-1.855a.333.333 0 00-.054-.214c-.517-.775-1.013-1.916-1.15-2.242a5.402 5.402 0 00-.083-1.818.333.333 0 10-.65.158s.004.012.007.031l-1.603-.66c.28-.826.834-1.396.884-1.45l3.142-.685c.038.298.14.955.357 1.622.148.45.347.91.641 1.282.125.157.273.299.44.411a.965.965 0 00-.176.557.98.98 0 00.972.975.96.96 0 00.308-.05v.358a.333.333 0 00.665 0v-1.276a.977.977 0 00-.176-.563zm-7.308-.563l1.939.796c.024.68-.07 1.666-.69 2.401a.332.332 0 00-.223-.073.334.334 0 00-.207.58s1.192 1.135 1.307 2.255h.002a.333.333 0 00.22.279l1.13.4-.16.23a.333.333 0 00.084.462l.351.244-.187.373-.852-.349-.742-.99a.333.333 0 00-.158-.132c-.517-.211-1.096-.743-1.5-1.33-.406-.587-.618-1.24-.573-1.552.06-.419.198-.641.307-.765a.333.333 0 00-.482-.457c-.017-.928.236-1.82.434-2.372zm13.345.001c.198.551.45 1.442.433 2.37a.333.333 0 00-.452-.011.333.333 0 00-.03.469c.11.124.25.346.31.765.045.312-.168.965-.573 1.552-.405.587-.983 1.118-1.5 1.33v.002a.333.333 0 00-.14.109l-.763 1.012-.85.349-.187-.373.352-.244a.333.333 0 00.083-.462l-.16-.23 1.131-.4a.333.333 0 00.218-.279c.116-1.12 1.31-2.255 1.31-2.255a.333.333 0 00-.429-.507c-.62-.735-.716-1.72-.692-2.4zm-6.526 1.12a.304.304 0 01-.307.308.303.303 0 01-.307-.31c0-.174.133-.307.307-.307s.307.133.307.309zm-4.5 1.572c.216.445.499.993.797 1.466l-.143 1.595-.213-.076c-.152-.842-.66-1.563-1.043-2.004.271-.306.465-.64.602-.982zm8.708 0c.137.34.331.675.603.981-.383.442-.892 1.162-1.043 2.004l-.216.077-.141-1.596c.299-.473.582-1.02.797-1.466z" color="#000"/></g></svg>