<svg width="64pt" height="64pt" viewBox="0 0 22.578 22.578" xmlns="http://www.w3.org/2000/svg"><g stroke-width=".795"><path style="-inkscape-stroke:none" d="M9.848 7.803a.333.333 0 00-.327.268l-.322 1.614a.333.333 0 00.01.16s.104.35.393.683c.29.334.796.673 1.526.673s1.236-.339 1.526-.673c.29-.334.395-.683.395-.683a.333.333 0 00.008-.16l-.32-1.614a.333.333 0 00-.326-.268z" color="#000" fill="#ffccbc"/><path d="M9.848 7.803a.333.333 0 00-.327.268l-.164.822a2.05 2.05 0 001.13.355h1.282c.425 0 .803-.142 1.13-.356l-.162-.82a.333.333 0 00-.327-.269z" fill="#ffa185"/><path style="-inkscape-stroke:none" d="M8.246 4.815a.819.819 0 00-.813.814v.32c0 .444.368.813.813.813l.243-.003c.181.475.402.933.71 1.26.366.39.804.664 1.288.664h1.282c.484 0 .922-.274 1.288-.664.308-.327.53-.785.71-1.26l.24.003a.818.818 0 00.819-.814v-.32a.815.815 0 00-.801-.8V3.565a.333.333 0 00-.334-.334H8.565a.333.333 0 00-.332.334z" color="#000" fill="#ffccbc"/><path d="M8.154 4.837a.954.954 0 01-.121.276c-.288.574-.151 1.09.482 1.255v.39l-.241.003a.819.819 0 01-.819-.813v-.32c0-.403.31-.733.7-.791zm5.973 0a.954.954 0 00.122.276c.288.574.15 1.09-.482 1.255v.39l.24.003a.819.819 0 00.82-.813v-.32a.812.812 0 00-.7-.791z" fill="#ffa185"/><path style="-inkscape-stroke:none" d="M11.128.97c-.998 0-1.682.167-2.125.344-.444.177-.674.393-.674.393-.611.612-.58 1.531-.452 2.256a6.57 6.57 0 00.384 1.314.333.333 0 00.54.106s.525-.681.89-1.477c.199.086.587.293 1.437.293.85 0 1.24-.207 1.44-.293a8.76 8.76 0 00.887 1.477.333.333 0 00.543-.106s.253-.59.38-1.314c.129-.725.16-1.644-.451-2.256 0 0-.23-.216-.674-.393-.443-.177-1.127-.344-2.125-.344z" color="#000" fill="#3a4d5c"/><path style="-inkscape-stroke:none" d="M11.128.97c-.998 0-1.682.167-2.126.344-.443.177-.672.393-.672.393a1.65 1.65 0 00-.305.42 2.84 2.84 0 01.312-.147c.443-.177 1.127-.344 2.125-.344s1.683.167 2.126.344c.443.177.673.393.673.393.61.611.58 1.53.452 2.255-.053.302-.128.58-.198.803a.333.333 0 00.483-.154s.253-.59.38-1.314c.129-.725.16-1.644-.452-2.256 0 0-.23-.216-.673-.393-.443-.177-1.127-.344-2.125-.344z" color="#000" fill="#143441"/><path style="-inkscape-stroke:none" d="M14.236 21.607a.333.333 0 00.324-.265l.443-2.155a.332.332 0 00.007-.093l-.164-2.03c.63-.996 1.191-2.324 1.191-2.324a.333.333 0 00.022-.175 4.36 4.36 0 01-.027-.867l2.246-.924a.333.333 0 00.177-.445l-.108-.24a5.085 5.085 0 00-1.086-1.787.333.333 0 00-.172-.093l-4.31-.865a.332.332 0 00-.145.005.82.82 0 00-.363.214c-.083.076-.186.144-.267.204-.162.12-.328.238-.864.238s-.74-.118-.902-.238c-.081-.06-.185-.128-.268-.204a.82.82 0 00-.363-.214.332.332 0 00-.145-.005l-3.973.865a.333.333 0 00-.172.093s-.736.736-1.086 1.786l-.108.241a.333.333 0 00.177.445l2.245.924c.012.264.02.55-.027.867-.008.06 0 .12.023.175 0 0 .56 1.328 1.191 2.324l-.164 2.03a.332.332 0 00.007.093l.442 2.155a.333.333 0 00.325.265z" color="#000" fill="#dc1c4b"/><path d="M14.862 18.082l-1.2.425c-.5.173-.67.746-.475 1.215-.288.273-.405.692-.223 1.055l.413.83h.86a.333.333 0 00.323-.265l.443-2.155a.334.334 0 00.007-.093l-.082-1.015z" fill="#801231"/><path style="-inkscape-stroke:none" d="M15.303 18.546l-1.45.51a.333.333 0 00-.165.505l.219.316-.315.217a.333.333 0 00-.108.422l.452.907a.333.333 0 00.425.16l1.224-.5a.333.333 0 00.14-.107l.745-1.035c.634-.233 1.265-.844 1.727-1.514.458-.664.763-1.373.678-2.01.46-1.703-.138-3.426-.415-4.08l-.126-.286-2.955 1.206-.02.259c-.053.793.089 2.071.978 3.064-.371.415-.844 1.11-1.034 1.966z" color="#000" fill="#ffccbc"/><path style="-inkscape-stroke:none" d="M15.1 12.584a.461.461 0 01.05.007v-.001a.334.334 0 01.263.389s-.206 1.182.167 2.308c.028.083.06.167.094.25-.108.224-.234.477-.372.736-.924-1.542-.543-3.42-.543-3.42a.333.333 0 01.34-.269z" color="#000" fill="#801231"/><path style="-inkscape-stroke:none" d="M16.503 15.592a.333.333 0 01.222.587s-.169.152-.388.4a3.586 3.586 0 01-.41-.56c.212-.222.365-.347.365-.347a.333.333 0 01.211-.08z" color="#000" fill="#ffa185"/><path style="-inkscape-stroke:none" d="M18.334 12.05l-.564.23.024.057c.277.654.875 2.377.415 4.08.085.637-.22 1.346-.678 2.01-.462.67-1.093 1.28-1.727 1.514l-.745 1.035a.333.333 0 01-.14.108l-.953.389c.09.12.252.169.395.11l1.224-.5a.333.333 0 00.14-.107l.745-1.035c.634-.233 1.265-.844 1.727-1.514.458-.664.763-1.373.678-2.01.46-1.703-.138-3.426-.415-4.08z" color="#000" fill="#ffa185"/><path d="M13.365 9.462l.016.307 3.451.888.938 1.624.577-.193a5.078 5.078 0 00-1.086-1.786.333.333 0 00-.172-.093zm-5.65 8.62l1.202.425c.499.173.67.746.474 1.215.287.273.405.692.223 1.055l-.413.83h-.86a.333.333 0 01-.323-.265l-.443-2.155a.334.334 0 01-.007-.093l.082-1.015z" fill="#801231"/><path style="-inkscape-stroke:none" d="M7.275 18.546l1.45.51c.208.073.29.324.164.505l-.218.316.315.217a.333.333 0 01.107.422l-.451.907a.333.333 0 01-.426.16l-1.224-.5a.333.333 0 01-.14-.107l-.744-1.035c-.634-.233-1.265-.844-1.727-1.514-.459-.664-.763-1.373-.678-2.01-.46-1.703.138-3.426.415-4.08l.126-.286 2.955 1.206.02.259c.052.793-.09 2.071-.978 3.064.371.415.844 1.11 1.034 1.966z" color="#000" fill="#ffccbc"/><path style="-inkscape-stroke:none" d="M7.478 12.584c-.016.001-.033.004-.05.007v-.001a.334.334 0 00-.263.389s.206 1.182-.168 2.308a3.616 3.616 0 01-.093.25c.107.224.234.477.372.736.924-1.542.542-3.42.542-3.42a.333.333 0 00-.34-.269z" color="#000" fill="#801231"/><path style="-inkscape-stroke:none" d="M6.075 15.592a.333.333 0 00-.222.587s.168.152.388.4c.16-.178.295-.367.41-.56-.212-.222-.366-.347-.366-.347a.333.333 0 00-.21-.08z" color="#000" fill="#ffa185"/><path style="-inkscape-stroke:none" d="M9.5 9.34a.333.333 0 00-.038.005l-.619.124.032.303c0 .007.08.934.373 1.884.147.478.344.965.637 1.357.292.392.716.702 1.243.702.526 0 .95-.31 1.243-.702.293-.392.49-.877.637-1.354.293-.952.373-1.885.373-1.887v-.003l.03-.297-.632-.127a.333.333 0 00-.023-.003l-.036.363a.333.333 0 000 .005s-.082.884-.349 1.752c-.133.434-.315.86-.533 1.152-.218.292-.436.435-.71.435-.275 0-.49-.143-.708-.435-.218-.292-.402-.717-.535-1.152a9.72 9.72 0 01-.347-1.755.333.333 0 000-.002.333.333 0 000-.002.333.333 0 000-.002z" color="#000" fill="#ececec"/><path style="-inkscape-stroke:none" d="M11.128 13.05a.978.978 0 00-.973.972c0 .534.44.976.973.976a.98.98 0 00.973-.976.978.978 0 00-.973-.973z" color="#000" fill="#801231"/><path style="-inkscape-stroke:none" d="M11.77 13.69a.333.333 0 00-.335.335v1.28a.333.333 0 00.334.332.333.333 0 00.332-.332v-1.28a.333.333 0 00-.332-.334z" color="#000" fill="#801231"/></g></svg>