<svg width="64pt" height="64pt" viewBox="0 0 22.578 22.578" xmlns="http://www.w3.org/2000/svg"><g stroke-width=".795"><path style="-inkscape-stroke:none" d="M16 8.293a.333.333 0 00-.334.332v1.666a.333.333 0 00.334.332h1.447c.64 0 1.167-.525 1.167-1.165s-.527-1.165-1.167-1.165z" color="#000" fill="#ec7523"/><path style="-inkscape-stroke:none" d="M16.303 8.96h1.144c.283 0 .501.216.501.498a.492.492 0 01-.5.499h-1.16z" color="#000" fill="#66342d"/><path style="-inkscape-stroke:none" d="M11.289 3.3c-1.045 0-2.463.342-3.647.678a36.532 36.532 0 00-2.123.673.333.333 0 00-.187.462s.963 1.932.963 4.512c0 .205-.006.401-.017.59v.01l-.285 1.656c-.29 1.042-.68 2.305-.68 2.305a.333.333 0 00.206.413s.939.335 2.123.671c1.184.336 2.602.68 3.647.68s2.463-.344 3.647-.68c1.184-.336 2.125-.67 2.125-.67a.333.333 0 00.202-.421s-.405-1.203-.696-2.285l-.263-1.63v-.002a9.923 9.923 0 01-.022-.637c0-2.58.964-4.511.964-4.511a.333.333 0 00-.185-.462s-.939-.338-2.123-.674c-1.184-.336-2.604-.678-3.65-.678z" color="#000" fill="#ffccbc"/><path d="M11.29 3.3c-1.046 0-2.464.342-3.648.678-1.184.336-2.123.673-2.123.673a.333.333 0 00-.187.462s.32.643.591 1.68l.011.002c.327.046 2.765.345 5.357-.632a11.53 11.53 0 003.549.7c1.023.036 1.588-.037 1.809-.069h.006c.271-1.037.59-1.68.59-1.68a.333.333 0 00-.183-.463s-.94-.337-2.124-.673c-1.184-.336-2.603-.678-3.648-.678z" fill="#ffa286"/><path style="-inkscape-stroke:none" d="M5.964.97c-.442 0-.942.095-1.332.462-.39.368-.628.966-.666 1.853-.077 1.812 1.107 2.673 1.993 2.676.07.01 2.824.387 5.33-.666 2.506 1.053 5.263.677 5.332.666.886-.002 2.068-.864 1.99-2.676-.037-.887-.275-1.485-.665-1.853-.39-.367-.888-.462-1.33-.462H11.29z" color="#000" fill="#ee8eb4"/><path style="-inkscape-stroke:none" d="M11.29 5.295s.533.207.8.288l.07-.038c.38-.212.783-.435 1.028-.68a.333.333 0 00-.233-.567.333.333 0 00-.236.098c-.088.088-.884.568-.884.568z" color="#000" fill="#df2a72"/><path style="-inkscape-stroke:none" d="M7.522 6.979a.333.333 0 00-.21.42s.315 1.005.315 1.56a.333.333 0 00.335.332.333.333 0 00.331-.332c0-.777-.349-1.77-.349-1.77a.333.333 0 00-.422-.21zm7.51-.008a.333.333 0 00-.403.243s-.342 1.368-.342 3.077a.333.333 0 00.332.332.333.333 0 00.331-.332c0-1.62.325-2.917.325-2.917a.333.333 0 00-.243-.403z" color="#000" fill="#ffa185"/><path style="-inkscape-stroke:none" d="M2.302 6.794a.333.333 0 00-.334.334.333.333 0 00.334.332h2.33a.333.333 0 00.332-.332.333.333 0 00-.332-.334z" color="#000" fill="#4895ef"/><path style="-inkscape-stroke:none" d="M4.632 6.462a.333.333 0 00-.236.096.333.333 0 00-.096.236v.666a.333.333 0 00.568.236l.331-.334a.333.333 0 000-.47l-.331-.334a.333.333 0 00-.236-.096z" color="#000" fill="#4377d1"/><path style="-inkscape-stroke:none" d="M17.948 6.794a.333.333 0 00-.334.334.333.333 0 00.334.332h2.33a.333.333 0 00.332-.332.333.333 0 00-.332-.334z" color="#000" fill="#4895ef"/><path style="-inkscape-stroke:none" d="M17.948 6.462a.333.333 0 00-.235.096l-.335.335a.333.333 0 000 .469l.335.334a.333.333 0 00.567-.236v-.666a.333.333 0 00-.012-.064.333.333 0 00-.008-.034.333.333 0 00-.079-.138.333.333 0 00-.233-.096z" color="#000" fill="#4377d1"/><path style="-inkscape-stroke:none" d="M18.28 9.129a.333.333 0 00-.332.329.492.492 0 01-.5.499H4.3a.333.333 0 00-.334.334v1.664a.333.333 0 00.334.331h13.147a1.17 1.17 0 001.167-1.164V9.458a.333.333 0 00-.334-.33z" color="#000" fill="#fca311"/><path style="-inkscape-stroke:none" d="M18.28 9.129a.333.333 0 00-.332.33.492.492 0 01-.501.498H4.3a.333.333 0 00-.334.334v.332h12.962a1.177 1.177 0 011.177 1.177v.281c.307-.21.51-.563.51-.96V9.459a.333.333 0 00-.335-.33z" color="#000" fill="#ec7523"/><path style="-inkscape-stroke:none" d="M5.63 9.957v.666a.333.333 0 00.333.334.333.333 0 00.333-.334v-.666h-.667zm1.666 0v2.33h.665v-2.33h-.665zm1.663 0v.666a.333.333 0 00.335.334.333.333 0 00.331-.334v-.666H8.96zm1.664 0v2.33h.666v-2.33h-.666zm1.666 0v.666a.333.333 0 00.332.334.333.333 0 00.334-.334v-.666h-.666zm1.664 0v2.33h.666v-2.33h-.666zm1.663 0v.666a.333.333 0 00.334.334.333.333 0 00.333-.334v-.666h-.667z" color="#000" fill="#143441"/><path style="-inkscape-stroke:none" d="M3.3 9.625a.672.672 0 00-.666.666v1.664c0 .363.303.666.666.666h.666a.672.672 0 00.666-.666V10.29a.672.672 0 00-.666-.666z" color="#000" fill="#4895ef"/><path style="-inkscape-stroke:none" d="M3.3 9.625a.672.672 0 00-.666.666H3.3c.363 0 .666.303.666.666v1.664a.672.672 0 00.666-.666v-1.664a.672.672 0 00-.666-.666z" color="#000" fill="#4377d1"/><path style="-inkscape-stroke:none" d="M5.963.97c-.44 0-.941.095-1.331.462a1.632 1.632 0 00-.182.204h11.5c.441 0 .94.095 1.329.462.39.368.629.965.666 1.853.031.727-.141 1.3-.415 1.728.614-.387 1.133-1.175 1.081-2.394-.038-.887-.277-1.485-.666-1.853-.39-.367-.888-.462-1.33-.462H11.29z" color="#000" fill="#e75f96"/><path style="-inkscape-stroke:none" d="M5.534 13.456s-1.657 2.61-1.875 5.468c-.02.266.053.526.174.76.122.233.294.444.538.574.966.515 3.123 1.35 6.918 1.35s5.955-.835 6.92-1.35c.244-.13.417-.344.538-.577.122-.234.193-.493.172-.76-.219-2.857-1.89-5.465-1.89-5.465s-1.687 1.163-5.739 1.163-5.756-1.163-5.756-1.163z" color="#000" fill="#ee8eb4"/><path style="-inkscape-stroke:none" d="M11.29 18.612a.333.333 0 00-.333.334v2.66a28.752 28.752 0 00.666 0v-2.66a.333.333 0 00-.334-.334z" color="#000" fill="#df2a72"/><path style="-inkscape-stroke:none" d="M5.534 13.456s-.373.52-.715 1.35c.165.096 1.938 1.144 5.806 1.144 1.332 0 2.43-.125 3.306-.294 1.51-.29 3.253.239 3.726 1.707.274.851.514 1.845.594 2.872.222-.132.382-.335.496-.554.122-.234.192-.493.172-.76-.219-2.857-1.89-5.465-1.89-5.465s-1.687 1.163-5.739 1.163c-4.051 0-5.756-1.163-5.756-1.163z" color="#000" fill="#e75f96"/></g></svg>